<?xml version="1.0" encoding="UTF-8" standalone="no"?>
<!-- Created with Inkscape (http://www.inkscape.org/) -->

<svg
   version="1.1"
   id="svg1"
   width="793"
   height="113"
   viewBox="0 0 793 113"
   xmlns="http://www.w3.org/2000/svg"
   xmlns:svg="http://www.w3.org/2000/svg">
  <defs
     id="defs1" />
  <g
     id="g1">
    <path
       id="path1"
       d="m 113.645,17.527 0.027,49.696"
       style="fill:none;stroke:#797979;stroke-width:0.746882;stroke-linecap:butt;stroke-linejoin:miter;stroke-miterlimit:4;stroke-dasharray:none;stroke-opacity:1"
       transform="scale(1.3333333)" />
    <path
       id="path2"
       d="m 454.297,17.527 0.027,49.696"
       style="fill:none;stroke:#797979;stroke-width:0.746882;stroke-linecap:butt;stroke-linejoin:miter;stroke-miterlimit:4;stroke-dasharray:none;stroke-opacity:1"
       transform="scale(1.3333333)" />
    <path
       id="path3"
       d="m 131.426,24.148 c 1.613,0 2.203,-0.89 2.203,-1.757 0,-2.235 -3.539,-1.461 -3.539,-2.809 0,-0.562 0.512,-0.949 1.226,-0.949 0.657,0 1.282,0.222 1.731,0.719 l 0.449,-0.547 c -0.504,-0.532 -1.211,-0.836 -2.125,-0.836 -1.176,0 -2.055,0.672 -2.055,1.66 0,2.133 3.543,1.281 3.543,2.824 0,0.457 -0.339,1.031 -1.406,1.031 -0.844,0 -1.488,-0.414 -1.883,-0.851 l -0.441,0.562 c 0.492,0.559 1.258,0.953 2.297,0.953 z"
       style="fill:#000000;fill-opacity:1;fill-rule:nonzero;stroke:none"
       transform="scale(1.3333333)" />
    <path
       id="path4"
       d="m 135.805,24.148 c 0.394,0 0.636,-0.117 0.808,-0.281 l -0.199,-0.5 c -0.09,0.098 -0.269,0.18 -0.457,0.18 -0.297,0 -0.437,-0.234 -0.437,-0.559 v -2.687 h 0.878 v -0.594 h -0.878 v -1.184 h -0.668 v 1.184 h -0.719 v 0.594 h 0.719 v 2.832 c 0,0.644 0.316,1.015 0.953,1.015 z"
       style="fill:#000000;fill-opacity:1;fill-rule:nonzero;stroke:none"
       transform="scale(1.3333333)" />
    <path
       id="path5"
       d="m 138.02,24.039 v -3.066 c 0.199,-0.348 0.761,-0.692 1.175,-0.692 0.11,0 0.188,0.012 0.27,0.028 v -0.692 c -0.594,0 -1.094,0.332 -1.445,0.789 v -0.699 h -0.672 v 4.332 z"
       style="fill:#000000;fill-opacity:1;fill-rule:nonzero;stroke:none"
       transform="scale(1.3333333)" />
    <path
       id="path6"
       d="m 143.684,24.039 v -2.976 c 0,-1.051 -0.762,-1.461 -1.676,-1.461 -0.707,0 -1.262,0.234 -1.731,0.714 l 0.317,0.469 c 0.383,-0.414 0.804,-0.601 1.324,-0.601 0.629,0 1.094,0.332 1.094,0.914 v 0.781 c -0.348,-0.402 -0.84,-0.594 -1.434,-0.594 -0.734,0 -1.515,0.457 -1.515,1.426 0,0.941 0.781,1.437 1.515,1.437 0.582,0 1.074,-0.207 1.434,-0.601 v 0.492 z m -1.864,-0.375 c -0.629,0 -1.066,-0.394 -1.066,-0.941 0,-0.559 0.437,-0.953 1.066,-0.953 0.477,0 0.934,0.179 1.192,0.539 v 0.816 c -0.258,0.359 -0.715,0.539 -1.192,0.539 z"
       style="fill:#000000;fill-opacity:1;fill-rule:nonzero;stroke:none"
       transform="scale(1.3333333)" />
    <path
       id="path7"
       d="m 146.121,24.148 c 0.395,0 0.637,-0.117 0.809,-0.281 l -0.2,-0.5 c -0.089,0.098 -0.269,0.18 -0.457,0.18 -0.296,0 -0.437,-0.234 -0.437,-0.559 v -2.687 h 0.879 v -0.594 h -0.879 v -1.184 h -0.672 v 1.184 h -0.719 v 0.594 h 0.719 v 2.832 c 0,0.644 0.32,1.015 0.957,1.015 z"
       style="fill:#000000;fill-opacity:1;fill-rule:nonzero;stroke:none"
       transform="scale(1.3333333)" />
    <path
       id="path8"
       d="m 149.621,24.148 c 0.707,0 1.289,-0.234 1.719,-0.664 l -0.32,-0.441 c -0.344,0.352 -0.844,0.547 -1.336,0.547 -0.934,0 -1.508,-0.68 -1.563,-1.496 h 3.508 v -0.172 c 0,-1.297 -0.774,-2.32 -2.082,-2.32 -1.238,0 -2.133,1.011 -2.133,2.269 0,1.352 0.922,2.277 2.207,2.277 z m 1.344,-2.546 h -2.844 c 0.035,-0.664 0.492,-1.446 1.418,-1.446 0.984,0 1.414,0.797 1.426,1.446 z"
       style="fill:#000000;fill-opacity:1;fill-rule:nonzero;stroke:none"
       transform="scale(1.3333333)" />
    <path
       id="path9"
       d="m 154.449,25.793 c 1.059,0 2.059,-0.449 2.059,-1.879 v -4.207 h -0.672 v 0.656 c -0.344,-0.476 -0.863,-0.761 -1.449,-0.761 -1.137,0 -1.926,0.859 -1.926,2.25 0,1.398 0.797,2.242 1.926,2.242 0.609,0 1.14,-0.332 1.449,-0.774 v 0.621 c 0,0.946 -0.668,1.297 -1.387,1.297 -0.617,0 -1.047,-0.164 -1.406,-0.593 l -0.34,0.503 c 0.512,0.5 1.012,0.645 1.746,0.645 z m 0.102,-2.293 c -0.871,0 -1.391,-0.699 -1.391,-1.648 0,-0.961 0.52,-1.649 1.391,-1.649 0.535,0 1.058,0.32 1.285,0.699 v 1.891 c -0.227,0.375 -0.75,0.707 -1.285,0.707 z"
       style="fill:#000000;fill-opacity:1;fill-rule:nonzero;stroke:none"
       transform="scale(1.3333333)" />
    <path
       id="path10"
       d="m 158.188,19.09 c 0.25,0 0.457,-0.195 0.457,-0.449 0,-0.25 -0.207,-0.457 -0.457,-0.457 -0.243,0 -0.45,0.207 -0.45,0.457 0,0.254 0.207,0.449 0.45,0.449 z m 0.339,4.949 v -4.332 h -0.672 v 4.332 z"
       style="fill:#000000;fill-opacity:1;fill-rule:nonzero;stroke:none"
       transform="scale(1.3333333)" />
    <path
       id="path11"
       d="m 161.781,24.148 c 0.789,0 1.254,-0.324 1.586,-0.753 l -0.445,-0.415 c -0.289,0.387 -0.656,0.567 -1.106,0.567 -0.921,0 -1.496,-0.719 -1.496,-1.676 0,-0.961 0.575,-1.668 1.496,-1.668 0.45,0 0.817,0.168 1.106,0.563 l 0.445,-0.411 c -0.332,-0.433 -0.797,-0.753 -1.586,-0.753 -1.289,0 -2.16,0.984 -2.16,2.269 0,1.289 0.871,2.277 2.16,2.277 z"
       style="fill:#000000;fill-opacity:1;fill-rule:nonzero;stroke:none"
       transform="scale(1.3333333)" />
    <path
       id="path12"
       d="m 168.754,24.148 c 1.137,0 1.926,-0.878 1.926,-2.277 0,-1.41 -0.789,-2.269 -1.926,-2.269 -0.609,0 -1.145,0.312 -1.461,0.753 v -0.648 h -0.672 v 5.977 h 0.672 v -2.301 c 0.352,0.484 0.871,0.765 1.461,0.765 z m -0.168,-0.601 c -0.531,0 -1.059,-0.324 -1.293,-0.699 v -1.957 c 0.234,-0.375 0.762,-0.688 1.293,-0.688 0.863,0 1.387,0.707 1.387,1.668 0,0.957 -0.524,1.676 -1.387,1.676 z"
       style="fill:#000000;fill-opacity:1;fill-rule:nonzero;stroke:none"
       transform="scale(1.3333333)" />
    <path
       id="path13"
       d="m 175.125,24.039 v -2.976 c 0,-1.051 -0.762,-1.461 -1.676,-1.461 -0.707,0 -1.261,0.234 -1.73,0.714 l 0.316,0.469 c 0.383,-0.414 0.805,-0.601 1.324,-0.601 0.629,0 1.094,0.332 1.094,0.914 v 0.781 c -0.348,-0.402 -0.84,-0.594 -1.433,-0.594 -0.735,0 -1.516,0.457 -1.516,1.426 0,0.941 0.781,1.437 1.516,1.437 0.582,0 1.074,-0.207 1.433,-0.601 v 0.492 z m -1.863,-0.375 c -0.629,0 -1.067,-0.394 -1.067,-0.941 0,-0.559 0.438,-0.953 1.067,-0.953 0.476,0 0.933,0.179 1.191,0.539 v 0.816 c -0.258,0.359 -0.715,0.539 -1.191,0.539 z"
       style="fill:#000000;fill-opacity:1;fill-rule:nonzero;stroke:none"
       transform="scale(1.3333333)" />
    <path
       id="path14"
       d="m 177.141,24.039 v -3.066 c 0.199,-0.348 0.761,-0.692 1.175,-0.692 0.11,0 0.188,0.012 0.27,0.028 v -0.692 c -0.594,0 -1.094,0.332 -1.445,0.789 v -0.699 h -0.672 v 4.332 z"
       style="fill:#000000;fill-opacity:1;fill-rule:nonzero;stroke:none"
       transform="scale(1.3333333)" />
    <path
       id="path15"
       d="m 180.52,24.148 c 0.394,0 0.636,-0.117 0.808,-0.281 l -0.199,-0.5 c -0.09,0.098 -0.27,0.18 -0.457,0.18 -0.297,0 -0.438,-0.234 -0.438,-0.559 v -2.687 h 0.879 v -0.594 h -0.879 v -1.184 h -0.671 v 1.184 h -0.715 v 0.594 h 0.715 v 2.832 c 0,0.644 0.32,1.015 0.957,1.015 z"
       style="fill:#000000;fill-opacity:1;fill-rule:nonzero;stroke:none"
       transform="scale(1.3333333)" />
    <path
       id="path16"
       d="M 185.66,24.039 V 21 c 0,-0.941 -0.476,-1.398 -1.383,-1.398 -0.644,0 -1.238,0.375 -1.543,0.734 v -0.629 h -0.671 v 4.332 h 0.671 v -3.164 c 0.254,-0.352 0.754,-0.672 1.286,-0.672 0.582,0 0.964,0.242 0.964,1.004 v 2.832 z"
       style="fill:#000000;fill-opacity:1;fill-rule:nonzero;stroke:none"
       transform="scale(1.3333333)" />
    <path
       id="path17"
       d="m 188.957,24.148 c 0.707,0 1.289,-0.234 1.719,-0.664 l -0.321,-0.441 c -0.343,0.352 -0.843,0.547 -1.335,0.547 -0.934,0 -1.508,-0.68 -1.563,-1.496 h 3.508 v -0.172 c 0,-1.297 -0.774,-2.32 -2.082,-2.32 -1.238,0 -2.133,1.011 -2.133,2.269 0,1.352 0.922,2.277 2.207,2.277 z m 1.344,-2.546 h -2.844 c 0.035,-0.664 0.492,-1.446 1.418,-1.446 0.984,0 1.414,0.797 1.426,1.446 z"
       style="fill:#000000;fill-opacity:1;fill-rule:nonzero;stroke:none"
       transform="scale(1.3333333)" />
    <path
       id="path18"
       d="m 192.719,24.039 v -3.066 c 0.199,-0.348 0.761,-0.692 1.176,-0.692 0.109,0 0.187,0.012 0.269,0.028 v -0.692 c -0.594,0 -1.094,0.332 -1.445,0.789 v -0.699 h -0.672 v 4.332 z"
       style="fill:#000000;fill-opacity:1;fill-rule:nonzero;stroke:none"
       transform="scale(1.3333333)" />
    <path
       id="path19"
       d="m 196.375,24.148 c 1.121,0 1.703,-0.585 1.703,-1.312 0,-1.684 -2.68,-1.055 -2.68,-2.008 0,-0.383 0.368,-0.68 0.961,-0.68 0.555,0 1.032,0.235 1.289,0.547 l 0.317,-0.465 c -0.352,-0.351 -0.871,-0.628 -1.606,-0.628 -1.031,0 -1.613,0.574 -1.613,1.246 0,1.605 2.68,0.957 2.68,2.007 0,0.43 -0.36,0.747 -1.024,0.747 -0.589,0 -1.136,-0.289 -1.425,-0.622 l -0.348,0.485 c 0.437,0.465 1.039,0.683 1.746,0.683 z"
       style="fill:#000000;fill-opacity:1;fill-rule:nonzero;stroke:none"
       transform="scale(1.3333333)" />
    <path
       id="path20"
       d="m 199.531,20.633 c 0.27,0 0.492,-0.227 0.492,-0.492 0,-0.27 -0.222,-0.496 -0.492,-0.496 -0.269,0 -0.492,0.226 -0.492,0.496 0,0.265 0.223,0.492 0.492,0.492 z m 0,3.496 c 0.27,0 0.492,-0.223 0.492,-0.492 0,-0.27 -0.222,-0.496 -0.492,-0.496 -0.269,0 -0.492,0.226 -0.492,0.496 0,0.269 0.223,0.492 0.492,0.492 z"
       style="fill:#000000;fill-opacity:1;fill-rule:nonzero;stroke:none"
       transform="scale(1.3333333)" />
    <path
       id="path21"
       d="m 471.082,24.039 v -2.375 h 1.656 c 1.184,0 1.875,-0.824 1.875,-1.805 0,-0.976 -0.672,-1.8 -1.875,-1.8 h -2.402 v 5.98 z M 472.648,21 h -1.566 v -2.277 h 1.566 c 0.711,0 1.192,0.465 1.192,1.136 0,0.676 -0.481,1.141 -1.192,1.141 z"
       style="fill:#000000;fill-opacity:1;fill-rule:nonzero;stroke:none"
       transform="scale(1.3333333)" />
    <path
       id="path22"
       d="m 476.242,24.039 v -3.066 c 0.199,-0.348 0.762,-0.692 1.176,-0.692 0.109,0 0.187,0.012 0.27,0.028 v -0.692 c -0.594,0 -1.094,0.332 -1.446,0.789 v -0.699 h -0.672 v 4.332 z"
       style="fill:#000000;fill-opacity:1;fill-rule:nonzero;stroke:none"
       transform="scale(1.3333333)" />
    <path
       id="path23"
       d="m 480.418,24.148 c 1.32,0 2.145,-1.023 2.145,-2.277 0,-1.258 -0.825,-2.269 -2.145,-2.269 -1.316,0 -2.141,1.011 -2.141,2.269 0,1.254 0.825,2.277 2.141,2.277 z m 0,-0.601 c -0.922,0 -1.441,-0.789 -1.441,-1.676 0,-0.879 0.519,-1.668 1.441,-1.668 0.926,0 1.437,0.789 1.437,1.668 0,0.887 -0.511,1.676 -1.437,1.676 z"
       style="fill:#000000;fill-opacity:1;fill-rule:nonzero;stroke:none"
       transform="scale(1.3333333)" />
    <path
       id="path24"
       d="m 483.988,19.09 c 0.25,0 0.457,-0.195 0.457,-0.449 0,-0.25 -0.207,-0.457 -0.457,-0.457 -0.242,0 -0.449,0.207 -0.449,0.457 0,0.254 0.207,0.449 0.449,0.449 z m -0.941,6.703 c 0.824,0 1.281,-0.484 1.281,-1.336 v -4.75 h -0.672 v 4.75 c 0,0.547 -0.297,0.781 -0.699,0.781 -0.269,0 -0.465,-0.129 -0.617,-0.281 l -0.242,0.512 c 0.277,0.215 0.511,0.324 0.949,0.324 z"
       style="fill:#000000;fill-opacity:1;fill-rule:nonzero;stroke:none"
       transform="scale(1.3333333)" />
    <path
       id="path25"
       d="m 487.629,24.148 c 0.707,0 1.289,-0.234 1.719,-0.664 l -0.321,-0.441 c -0.343,0.352 -0.843,0.547 -1.336,0.547 -0.933,0 -1.507,-0.68 -1.562,-1.496 h 3.508 v -0.172 c 0,-1.297 -0.774,-2.32 -2.082,-2.32 -1.239,0 -2.133,1.011 -2.133,2.269 0,1.352 0.922,2.277 2.207,2.277 z m 1.344,-2.546 h -2.844 c 0.035,-0.664 0.492,-1.446 1.418,-1.446 0.984,0 1.414,0.797 1.426,1.446 z"
       style="fill:#000000;fill-opacity:1;fill-rule:nonzero;stroke:none"
       transform="scale(1.3333333)" />
    <path
       id="path26"
       d="m 492.629,24.148 c 0.789,0 1.254,-0.324 1.586,-0.753 L 493.77,22.98 c -0.29,0.387 -0.657,0.567 -1.106,0.567 -0.922,0 -1.496,-0.719 -1.496,-1.676 0,-0.961 0.574,-1.668 1.496,-1.668 0.449,0 0.816,0.168 1.106,0.563 l 0.445,-0.411 c -0.332,-0.433 -0.797,-0.753 -1.586,-0.753 -1.289,0 -2.16,0.984 -2.16,2.269 0,1.289 0.871,2.277 2.16,2.277 z"
       style="fill:#000000;fill-opacity:1;fill-rule:nonzero;stroke:none"
       transform="scale(1.3333333)" />
    <path
       id="path27"
       d="m 496.25,24.148 c 0.395,0 0.633,-0.117 0.805,-0.281 l -0.2,-0.5 c -0.089,0.098 -0.265,0.18 -0.453,0.18 -0.297,0 -0.437,-0.234 -0.437,-0.559 v -2.687 h 0.875 v -0.594 h -0.875 v -1.184 h -0.672 v 1.184 h -0.719 v 0.594 h 0.719 v 2.832 c 0,0.644 0.32,1.015 0.957,1.015 z"
       style="fill:#000000;fill-opacity:1;fill-rule:nonzero;stroke:none"
       transform="scale(1.3333333)" />
    <path
       id="path28"
       d="m 502.234,24.148 c 1.141,0 1.93,-0.878 1.93,-2.277 0,-1.41 -0.789,-2.269 -1.93,-2.269 -0.609,0 -1.144,0.312 -1.461,0.753 v -0.648 h -0.671 v 5.977 h 0.671 v -2.301 c 0.352,0.484 0.872,0.765 1.461,0.765 z m -0.168,-0.601 c -0.531,0 -1.058,-0.324 -1.293,-0.699 v -1.957 c 0.235,-0.375 0.762,-0.688 1.293,-0.688 0.868,0 1.391,0.707 1.391,1.668 0,0.957 -0.523,1.676 -1.391,1.676 z"
       style="fill:#000000;fill-opacity:1;fill-rule:nonzero;stroke:none"
       transform="scale(1.3333333)" />
    <path
       id="path29"
       d="m 508.605,24.039 v -2.976 c 0,-1.051 -0.761,-1.461 -1.675,-1.461 -0.703,0 -1.258,0.234 -1.727,0.714 l 0.317,0.469 c 0.382,-0.414 0.8,-0.601 1.32,-0.601 0.629,0 1.094,0.332 1.094,0.914 v 0.781 c -0.348,-0.402 -0.84,-0.594 -1.434,-0.594 -0.73,0 -1.512,0.457 -1.512,1.426 0,0.941 0.782,1.437 1.512,1.437 0.582,0 1.074,-0.207 1.434,-0.601 v 0.492 z m -1.863,-0.375 c -0.625,0 -1.062,-0.394 -1.062,-0.941 0,-0.559 0.437,-0.953 1.062,-0.953 0.477,0 0.934,0.179 1.192,0.539 v 0.816 c -0.258,0.359 -0.715,0.539 -1.192,0.539 z"
       style="fill:#000000;fill-opacity:1;fill-rule:nonzero;stroke:none"
       transform="scale(1.3333333)" />
    <path
       id="path30"
       d="m 510.625,24.039 v -3.066 c 0.199,-0.348 0.762,-0.692 1.176,-0.692 0.109,0 0.187,0.012 0.269,0.028 v -0.692 c -0.593,0 -1.093,0.332 -1.445,0.789 v -0.699 h -0.672 v 4.332 z"
       style="fill:#000000;fill-opacity:1;fill-rule:nonzero;stroke:none"
       transform="scale(1.3333333)" />
    <path
       id="path31"
       d="m 514.004,24.148 c 0.394,0 0.637,-0.117 0.809,-0.281 l -0.2,-0.5 c -0.09,0.098 -0.269,0.18 -0.457,0.18 -0.297,0 -0.437,-0.234 -0.437,-0.559 v -2.687 h 0.879 v -0.594 h -0.879 v -1.184 h -0.672 v 1.184 h -0.719 v 0.594 h 0.719 v 2.832 c 0,0.644 0.32,1.015 0.957,1.015 z"
       style="fill:#000000;fill-opacity:1;fill-rule:nonzero;stroke:none"
       transform="scale(1.3333333)" />
    <path
       id="path32"
       d="M 519.141,24.039 V 21 c 0,-0.941 -0.477,-1.398 -1.383,-1.398 -0.645,0 -1.238,0.375 -1.543,0.734 v -0.629 h -0.672 v 4.332 h 0.672 v -3.164 c 0.254,-0.352 0.754,-0.672 1.285,-0.672 0.582,0 0.965,0.242 0.965,1.004 v 2.832 z"
       style="fill:#000000;fill-opacity:1;fill-rule:nonzero;stroke:none"
       transform="scale(1.3333333)" />
    <path
       id="path33"
       d="m 522.441,24.148 c 0.704,0 1.286,-0.234 1.715,-0.664 l -0.32,-0.441 c -0.344,0.352 -0.84,0.547 -1.332,0.547 -0.934,0 -1.508,-0.68 -1.563,-1.496 h 3.504 v -0.172 c 0,-1.297 -0.773,-2.32 -2.078,-2.32 -1.238,0 -2.133,1.011 -2.133,2.269 0,1.352 0.922,2.277 2.207,2.277 z m 1.34,-2.546 h -2.84 c 0.036,-0.664 0.493,-1.446 1.418,-1.446 0.981,0 1.411,0.797 1.422,1.446 z"
       style="fill:#000000;fill-opacity:1;fill-rule:nonzero;stroke:none"
       transform="scale(1.3333333)" />
    <path
       id="path34"
       d="m 526.199,24.039 v -3.066 c 0.199,-0.348 0.762,-0.692 1.176,-0.692 0.109,0 0.188,0.012 0.27,0.028 v -0.692 c -0.594,0 -1.094,0.332 -1.446,0.789 v -0.699 h -0.668 v 4.332 z"
       style="fill:#000000;fill-opacity:1;fill-rule:nonzero;stroke:none"
       transform="scale(1.3333333)" />
    <path
       id="path35"
       d="m 528.848,20.633 c 0.269,0 0.492,-0.227 0.492,-0.492 0,-0.27 -0.223,-0.496 -0.492,-0.496 -0.27,0 -0.493,0.226 -0.493,0.496 0,0.265 0.223,0.492 0.493,0.492 z m 0,3.496 c 0.269,0 0.492,-0.223 0.492,-0.492 0,-0.27 -0.223,-0.496 -0.492,-0.496 -0.27,0 -0.493,0.226 -0.493,0.496 0,0.269 0.223,0.492 0.493,0.492 z"
       style="fill:#000000;fill-opacity:1;fill-rule:nonzero;stroke:none"
       transform="scale(1.3333333)" />
    <path
       id="path36"
       d="m 316.227,41.48 h -1.196 v 0.243 h 0.063 c 0.179,0 0.273,0.031 0.344,0.105 l 0.062,0.067 c 0.074,0.078 0.133,0.148 0.227,0.257 v 3.27 c -0.016,0.172 -0.172,0.293 -0.344,0.266 h -0.082 v 0.238 h 1.301 v -0.238 h -0.094 c -0.168,0 -0.344,-0.083 -0.344,-0.266 v -2.703 l 2.738,3.179 0.024,0.024 h 0.176 V 42 c 0.015,-0.164 0.16,-0.281 0.32,-0.266 h 0.113 v -0.238 h -1.293 v 0.238 h 0.063 c 0.164,0 0.343,0.102 0.343,0.266 v 2.309 l -2.398,-2.793 z m -15.086,9.688 0.304,-0.684 0.301,0.684 z m -0.797,0.898 h -0.086 v 0.145 h 0.738 v -0.145 h -0.078 c -0.035,-0.003 -0.07,-0.019 -0.094,-0.046 -0.011,-0.024 -0.011,-0.047 0,-0.071 l 0.223,-0.519 h 0.82 l 0.227,0.519 c 0.011,0.024 0.011,0.055 0,0.078 -0.016,0.024 -0.043,0.039 -0.071,0.039 h -0.109 v 0.145 h 0.938 v -0.145 h -0.067 c -0.07,0 -0.133,-0.062 -0.191,-0.191 l -0.953,-2.199 c -0.016,-0.028 -0.039,-0.047 -0.071,-0.055 -0.019,0 -0.05,0 -0.086,0.039 l -0.914,2.207 c -0.043,0.094 -0.117,0.199 -0.215,0.199 m -2.015,-2.398 h -1 v 0.152 h 0.066 c 0.082,0 0.176,0.024 0.176,0.219 v 1.809 c 0,0.152 -0.051,0.218 -0.176,0.218 h -0.066 v 0.149 h 0.969 v -0.149 h -0.055 c -0.129,0 -0.188,-0.066 -0.188,-0.218 v -1.809 c 0,-0.195 0.11,-0.219 0.188,-0.219 h 0.055 z m -4.449,-3.742 h 3.3 l 0.411,-1.281 h -0.262 v 0.039 c -0.18,0.57 -0.469,0.812 -0.957,0.812 h -1.098 c -0.09,0 -0.16,-0.078 -0.156,-0.168 v -1.527 h 1.184 c 0.183,0 0.277,0.176 0.277,0.34 v 0.074 h 0.23 v -1.301 h -0.23 v 0.09 c 0,0.168 -0.086,0.344 -0.277,0.344 h -1.18 v -1.442 h 1.277 c 0.317,0 0.524,0.246 0.551,0.645 v 0.054 h 0.227 l -0.083,-1.121 h -3.214 v 0.243 h 0.082 c 0.226,0 0.34,0.128 0.34,0.398 v 3.184 c 0,0.265 -0.106,0.39 -0.34,0.39 h -0.082 v 0.231 z m 0.429,3.742 h -0.972 v 0.152 h 0.062 c 0.047,0 0.18,0 0.18,0.231 v 1.797 c 0,0.195 -0.102,0.222 -0.18,0.222 h -0.062 v 0.145 h 1.859 l 0.227,-0.754 h -0.149 v 0.027 c -0.097,0.325 -0.262,0.473 -0.539,0.473 h -0.574 c -0.043,0 -0.086,-0.059 -0.086,-0.117 v -1.797 c 0,-0.164 0.055,-0.231 0.191,-0.231 h 0.055 v -0.152 z m -4.57,-3.742 h 3.324 l 0.391,-1.281 h -0.235 v 0.039 c -0.171,0.562 -0.468,0.812 -0.957,0.812 H 291.18 C 291.082,45.504 291,45.426 291,45.328 v -1.527 h 1.207 c 0.16,0 0.254,0.176 0.254,0.34 v 0.074 h 0.23 v -1.301 h -0.23 V 43 c 0,0.168 -0.09,0.344 -0.254,0.344 h -1.203 v -1.442 h 1.281 c 0.324,0 0.539,0.246 0.555,0.641 v 0.059 h 0.226 l -0.082,-1.118 h -3.222 v 0.243 h 0.09 c 0.23,0 0.339,0.121 0.339,0.398 v 3.184 c 0,0.269 -0.105,0.394 -0.339,0.394 h -0.09 v 0.223 z m -0.031,5.242 0.301,-0.684 0.3,0.684 z m -0.801,0.898 h -0.086 v 0.145 h 0.734 v -0.145 h -0.07 c -0.039,-0.003 -0.074,-0.019 -0.098,-0.046 -0.011,-0.024 -0.011,-0.047 0,-0.071 l 0.223,-0.519 h 0.817 l 0.226,0.519 c 0.012,0.024 0.012,0.055 0,0.078 -0.016,0.024 -0.043,0.039 -0.07,0.039 h -0.106 v 0.145 h 0.938 v -0.145 h -0.067 c -0.07,0 -0.136,-0.062 -0.191,-0.191 l -0.953,-2.199 c -0.016,-0.028 -0.039,-0.047 -0.07,-0.055 -0.02,0 -0.051,0 -0.086,0.039 l -0.934,2.207 c -0.043,0.094 -0.117,0.199 -0.215,0.199 m -3.594,-2.125 c 0.051,-0.023 0.106,-0.035 0.164,-0.027 0.262,-0.016 0.485,0.191 0.497,0.453 -0.008,0.27 -0.231,0.481 -0.497,0.477 h -0.164 z m -0.046,-0.273 h -0.684 v 0.152 h 0.09 c 0.121,0 0.176,0.071 0.176,0.219 v 1.809 c 0,0.191 -0.094,0.218 -0.176,0.218 h -0.067 v 0.145 h 0.965 v -0.145 h -0.058 c -0.129,0 -0.188,-0.066 -0.188,-0.218 v -0.774 h 0.102 l 0.859,1.137 h 0.621 v -0.145 h -0.058 c -0.063,0 -0.122,-0.066 -0.176,-0.132 l -0.715,-0.926 c 0.297,-0.082 0.508,-0.336 0.535,-0.641 0.012,-0.176 -0.055,-0.351 -0.18,-0.476 -0.3,-0.203 -0.671,-0.286 -1.027,-0.223 m -4.793,0.055 -0.019,0.609 h 0.136 v -0.035 c 0.016,-0.246 0.102,-0.363 0.274,-0.363 h 0.453 v 1.925 c 0,0.141 -0.059,0.204 -0.195,0.204 h -0.051 v 0.148 h 0.961 v -0.148 h -0.051 c -0.141,0 -0.188,-0.055 -0.188,-0.204 v -1.925 h 0.45 c 0.113,0 0.242,0.043 0.261,0.363 v 0.035 h 0.149 l -0.028,-0.609 c 0,-0.028 -0.023,-0.055 -0.054,-0.059 h -2.055 c -0.027,0.004 -0.051,0.027 -0.055,0.055 m -5.972,-5.926 h 1.199 c 0.234,0 0.246,0.297 0.246,0.34 v 0.078 h 0.234 v -1.297 h -0.234 V 43 c 0,0.055 0,0.344 -0.246,0.344 h -1.199 V 41.902 H 276 c 0.305,0 0.523,0.258 0.547,0.641 v 0.059 h 0.226 l -0.082,-1.122 h -3.421 v 0.243 h 0.089 c 0.235,0 0.344,0.125 0.344,0.406 v 3.172 c 0,0.269 -0.105,0.394 -0.344,0.394 h -0.089 v 0.231 h 1.679 v -0.231 h -0.109 c -0.227,0 -0.34,-0.117 -0.34,-0.382 v -1.52 z m -1.004,5.871 h -0.938 v 0.152 h 0.043 c 0.102,0.008 0.18,0.094 0.176,0.196 v 1.324 c 0.012,0.543 0.488,0.961 1.027,0.898 0.598,0 0.981,-0.343 0.981,-0.851 v -1.442 c 0,-0.058 0.019,-0.128 0.121,-0.128 h 0.117 v -0.149 h -0.75 v 0.149 h 0.11 c 0.074,-0.008 0.136,0.054 0.128,0.128 v 1.442 c -0.015,0.355 -0.332,0.625 -0.683,0.582 -0.332,0.004 -0.59,-0.281 -0.555,-0.613 v -1.34 c 0,-0.102 0.074,-0.184 0.172,-0.196 h 0.055 v -0.152 z m -4.563,1.496 0.305,-0.683 0.301,0.683 z m -0.797,0.899 h -0.089 v 0.144 h 0.738 v -0.144 h -0.074 c -0.035,0 -0.071,-0.02 -0.094,-0.047 -0.016,-0.024 -0.016,-0.051 0,-0.071 l 0.219,-0.519 h 0.82 l 0.227,0.519 c 0.011,0.028 0.011,0.055 0,0.079 -0.016,0.023 -0.043,0.035 -0.071,0.039 h -0.109 v 0.144 h 0.926 v -0.144 h -0.063 c -0.078,0 -0.14,-0.063 -0.195,-0.188 l -0.953,-2.203 c -0.012,-0.027 -0.035,-0.047 -0.067,-0.059 -0.031,-0.004 -0.066,0.012 -0.086,0.043 l -0.914,2.207 c -0.043,0.09 -0.113,0.2 -0.215,0.2 M 250.477,41.582 h 0.406 c -0.031,-0.125 -0.11,-0.215 -0.199,-0.215 -0.09,0 -0.172,0.09 -0.207,0.215 m 0.406,0.215 h -0.406 c 0.031,0.121 0.113,0.215 0.207,0.215 0.089,0 0.168,-0.094 0.199,-0.215 m -0.406,-2.055 h 0.406 c -0.031,-0.121 -0.11,-0.215 -0.199,-0.215 -0.09,0 -0.172,0.094 -0.207,0.215 m 0.406,0.215 h -0.406 c 0.031,0.125 0.113,0.219 0.207,0.219 0.089,0 0.168,-0.094 0.199,-0.219 m 5.308,2.879 c -0.226,-0.008 -0.449,0.027 -0.66,0.105 -0.168,0.086 -0.351,0.133 -0.543,0.141 -0.187,-0.008 -0.375,-0.059 -0.543,-0.141 -0.207,-0.078 -0.429,-0.117 -0.652,-0.109 h -1.977 V 42 h -0.793 c -0.07,0.125 -0.199,0.207 -0.343,0.211 -0.227,-0.02 -0.407,-0.203 -0.426,-0.43 h -0.113 c -0.059,0 -0.106,-0.047 -0.106,-0.105 0,-0.059 0.047,-0.11 0.106,-0.11 h 0.113 c 0.019,-0.226 0.199,-0.406 0.426,-0.425 0.144,0.004 0.273,0.086 0.343,0.211 h 0.793 v -1.176 h -0.793 c -0.066,0.129 -0.199,0.215 -0.343,0.219 -0.227,-0.024 -0.407,-0.204 -0.426,-0.43 h -0.113 c -0.059,0 -0.106,-0.051 -0.106,-0.11 0,-0.058 0.047,-0.109 0.106,-0.105 h 0.113 c 0.019,-0.227 0.199,-0.41 0.426,-0.43 0.144,0.008 0.273,0.086 0.343,0.215 h 0.793 v -0.617 l 0.43,-0.238 v 3.734 h 1.543 c 0.285,-0.035 0.566,0.016 0.824,0.141 0.117,0.058 0.246,0.093 0.379,0.105 0.133,-0.008 0.262,-0.047 0.375,-0.105 0.258,-0.125 0.543,-0.172 0.824,-0.141 h 1.547 v -3.68 l 0.43,0.192 v 0.609 h 1.027 c 0.18,0 0.321,0.145 0.321,0.32 0,0.18 -0.141,0.321 -0.321,0.321 h -1.027 v 1.187 h 1.027 c 0.391,0.039 0.391,0.606 0,0.645 h -1.027 v 0.836 h -1.977 z m 1.102,-0.797 h -1.102 c -0.339,-0.031 -0.679,0.027 -0.988,0.172 v -3.227 c 0,-0.32 0.344,-0.511 0.766,-0.511 0.64,0 0.984,0.211 1.336,0.144 z m -2.531,0.16 c -0.305,-0.144 -0.645,-0.207 -0.985,-0.172 h -1.101 v -3.425 c 0.34,0.07 0.683,-0.141 1.34,-0.141 0.437,0 0.765,0.195 0.765,0.512 v 3.23 z m 2.957,1.324 c 2.14,0.34 3.082,1.153 3.672,2.395 V 35.621 c -0.602,1.258 -1.532,2.074 -3.672,2.399 0.344,-2.137 1.156,-3.082 2.414,-3.668 h -10.297 c 1.262,0.597 2.074,1.531 2.398,3.668 -2.14,-0.344 -3.082,-1.157 -3.671,-2.399 V 45.93 c 0.601,-1.258 1.531,-2.075 3.671,-2.399 -0.343,2.141 -1.156,3.082 -2.398,3.668 h 10.312 c -1.257,-0.597 -2.074,-1.527 -2.41,-3.668 m 5.477,-0.758 c 0,3.938 -3.426,7.961 -8.215,9.446 -4.793,-1.485 -8.238,-5.512 -8.238,-9.446 V 32.551 h 16.457 z m 0.426,0 V 32.125 H 246.34 v 10.633 c 0,4.18 3.586,8.324 8.531,9.851 l 0.129,0.039 0.125,-0.039 c 4.938,-1.535 8.52,-5.683 8.52,-9.859 m 8.214,-9.168 h 0.258 l -0.058,-1.371 c -0.004,-0.055 -0.043,-0.098 -0.098,-0.109 h -4.398 c -0.055,0.011 -0.098,0.054 -0.098,0.109 l -0.059,1.371 h 0.258 v -0.047 c 0.02,-0.394 0.149,-0.859 0.641,-0.859 h 0.949 v 4.289 c 0.004,0.238 -0.18,0.437 -0.418,0.453 h -0.305 v 0.277 h 2.453 v -0.277 h -0.308 c -0.238,-0.016 -0.422,-0.215 -0.422,-0.453 v -4.289 h 0.953 c 0.492,0 0.617,0.465 0.637,0.859 v 0.055 z m -0.254,9.512 c 0,1.453 -0.628,2.422 -1.562,2.422 h -0.02 c -0.328,0 -0.64,-0.133 -0.867,-0.364 -0.48,-0.562 -0.726,-1.285 -0.683,-2.019 0,-0.543 0.109,-2.317 1.554,-2.399 0.575,0.032 1.536,0.379 1.567,2.348 m 1.086,0.043 c 0,-1.652 -1.086,-2.816 -2.649,-2.84 -0.648,-0.008 -1.277,0.223 -1.765,0.649 -0.582,0.582 -0.903,1.371 -0.891,2.195 0,1.637 1.117,2.828 2.652,2.828 1.539,0 2.668,-1.184 2.668,-2.82 m 2.559,-5.442 h 1.684 v -0.238 h -0.11 c -0.226,0 -0.34,-0.117 -0.34,-0.391 v -3.179 c 0,-0.274 0.098,-0.395 0.34,-0.395 h 0.11 v -0.234 h -1.688 v 0.234 h 0.09 c 0.238,0 0.344,0.129 0.344,0.395 v 1.324 h -1.711 v -1.324 c 0,-0.266 0.109,-0.395 0.34,-0.395 h 0.085 v -0.234 h -1.703 v 0.234 h 0.09 c 0.235,0 0.34,0.113 0.34,0.395 v 3.179 c 0,0.289 -0.086,0.391 -0.34,0.391 h -0.09 v 0.238 h 1.676 v -0.238 h -0.086 c -0.222,0 -0.34,-0.121 -0.34,-0.391 v -1.425 h 1.711 v 1.425 c 0,0.278 -0.101,0.391 -0.343,0.391 h -0.09 z m 2.836,12.063 c -0.285,-0.184 -0.656,-0.156 -0.91,0.07 -0.157,0.149 -0.235,0.36 -0.215,0.574 0.027,0.215 0.152,0.403 0.34,0.508 l 0.195,0.121 c 0.203,0.102 0.387,0.235 0.543,0.399 0.121,0.16 0.078,0.386 -0.09,0.496 -0.129,0.101 -0.305,0.117 -0.449,0.043 -0.234,-0.117 -0.387,-0.356 -0.383,-0.617 v -0.043 h -0.156 v 0.914 h 0.148 v -0.032 c 0.008,-0.039 0.032,-0.07 0.067,-0.093 0.027,-0.012 0.062,-0.012 0.09,0 0.16,0.086 0.335,0.132 0.519,0.136 0.164,0.004 0.324,-0.046 0.457,-0.144 0.27,-0.195 0.359,-0.551 0.219,-0.852 -0.203,-0.277 -0.477,-0.5 -0.797,-0.633 l -0.047,-0.05 c -0.141,-0.059 -0.238,-0.192 -0.262,-0.34 0.004,-0.113 0.071,-0.215 0.168,-0.27 0.125,-0.074 0.282,-0.074 0.407,0 0.203,0.118 0.324,0.332 0.324,0.567 v 0.043 h 0.152 v -0.887 h -0.144 v 0.031 c -0.004,0.031 -0.024,0.059 -0.051,0.074 -0.039,0.02 -0.086,0.02 -0.125,0 m 2.82,-12.074 0.399,-1.281 h -0.254 v 0.043 c -0.164,0.551 -0.461,0.797 -0.961,0.797 h -1.09 c -0.09,0.004 -0.16,-0.07 -0.156,-0.156 v -1.536 h 1.187 c 0.168,0 0.25,0.184 0.25,0.344 V 36 h 0.25 v -1.312 h -0.25 v 0.089 c 0,0.145 -0.078,0.34 -0.25,0.34 h -1.18 v -1.449 h 1.282 c 0.316,0 0.523,0.246 0.547,0.641 v 0.058 h 0.226 l -0.082,-1.109 h -3.234 v 0.234 h 0.09 c 0.226,0 0.339,0.129 0.339,0.395 v 3.179 c 0,0.274 -0.101,0.391 -0.339,0.391 h -0.09 v 0.238 h 3.316 z m 2.395,5.438 c 0,1.187 -0.477,2.398 -1.551,2.398 -0.949,0 -1.559,-0.933 -1.559,-2.398 0,-0.93 0.227,-1.606 0.649,-2.008 0.238,-0.227 0.547,-0.359 0.875,-0.375 0.781,0 1.574,0.742 1.574,2.394 m 1.109,0.04 c -0.035,-2.274 -1.773,-2.879 -2.683,-2.879 -1.535,0 -2.649,1.207 -2.649,2.839 0,1.43 0.852,2.551 2.11,2.805 0.836,0.84 1.988,1.293 3.172,1.25 h 0.062 v -0.258 h -0.059 c -0.714,-0.054 -1.351,-0.472 -1.683,-1.105 1.066,-0.379 1.711,-1.387 1.711,-2.652 m 4.496,-10.774 h 0.238 v -0.285 h -1.683 v 0.285 h 0.265 c 0.184,-0.016 0.332,0.145 0.305,0.32 v 3.172 c 0,0.903 -0.777,1.317 -1.496,1.317 -0.738,-0.004 -1.32,-0.633 -1.274,-1.368 v -2.992 c 0,-0.242 0.188,-0.437 0.426,-0.449 h 0.133 v -0.285 h -2.129 v 0.285 h 0.125 c 0.242,0.008 0.43,0.207 0.426,0.449 v 2.953 c 0,1.157 0.91,1.961 2.211,1.961 1.301,0 2.14,-0.769 2.14,-1.871 v -3.172 c 0,-0.218 0.102,-0.32 0.313,-0.32 m 0.129,9.313 h 0.195 v -0.239 h -1.301 v 0.239 h 0.196 c 0.136,-0.008 0.246,0.101 0.238,0.238 v 2.527 c 0,0.684 -0.598,1.024 -1.191,1.024 -0.586,0.004 -1.047,-0.504 -0.985,-1.086 v -2.348 c 0,-0.18 0.137,-0.328 0.313,-0.344 h 0.09 V 41.5 h -1.633 v 0.219 h 0.058 c 0.184,0.011 0.325,0.16 0.325,0.34 v 2.332 c 0,0.922 0.726,1.566 1.769,1.566 1.039,0 1.711,-0.598 1.711,-1.488 v -2.5 c 0,-0.153 0.074,-0.239 0.219,-0.239 m 4.851,-8.214 h 0.09 v -0.239 h -1.32 v 0.239 h 0.097 c 0.161,-0.02 0.309,0.101 0.321,0.265 v 2.301 l -2.422,-2.805 h -1.191 v 0.239 h 0.062 c 0.164,0 0.266,0 0.34,0.105 l 0.152,0.18 0.121,0.14 v 3.266 c 0,0.176 -0.164,0.258 -0.32,0.258 h -0.105 v 0.246 h 1.324 v -0.246 h -0.086 c -0.172,0 -0.344,-0.086 -0.344,-0.258 v -2.703 l 2.738,3.184 0.02,0.019 h 0.18 v -3.922 c 0.015,-0.172 0.171,-0.293 0.343,-0.265 m 0.617,4.203 h 1.661 v -0.235 h -0.082 c -0.231,0 -0.34,-0.125 -0.34,-0.39 v -3.2 c 0,-0.265 0.105,-0.386 0.34,-0.386 h 0.082 v -0.239 h -1.661 v 0.239 h 0.079 c 0.246,0 0.339,0.121 0.339,0.386 v 3.184 c 0,0.273 -0.105,0.391 -0.339,0.391 h -0.079 z m 6.336,-4.215 h 0.063 v -0.242 h -1.117 v 0.242 h 0.121 c 0.051,0 0.097,0.027 0.129,0.066 0.031,0.039 0.035,0.094 0.019,0.137 l -1.027,2.531 -1.113,-2.531 c -0.024,-0.043 -0.024,-0.094 0,-0.137 0.031,-0.039 0.074,-0.066 0.125,-0.07 h 0.203 v -0.242 h -1.563 v 0.242 h 0.063 c 0.133,0 0.234,0.098 0.34,0.34 l 1.648,3.797 c 0.035,0.043 0.082,0.066 0.137,0.07 0.047,-0.004 0.09,-0.031 0.109,-0.074 l 1.52,-3.785 c 0.121,-0.254 0.215,-0.34 0.34,-0.34 M 301.418,42 v 2.313 l -2.426,-2.797 h -1.211 v 0.238 h 0.063 c 0.183,0 0.281,0.027 0.34,0.105 l 0.066,0.067 c 0.07,0.078 0.137,0.148 0.227,0.262 v 3.234 c 0,0.18 -0.176,0.262 -0.344,0.262 h -0.094 v 0.238 h 1.313 v -0.227 h -0.086 c -0.164,0 -0.34,-0.082 -0.34,-0.265 v -2.703 l 2.738,3.187 0.02,0.016 h 0.175 V 42 c 0.012,-0.164 0.157,-0.281 0.321,-0.266 h 0.097 V 41.5 h -1.308 v 0.234 h 0.09 c 0.168,0 0.339,0.102 0.339,0.266 m 3.305,-4.289 0.41,-1.281 h -0.242 v 0.039 c -0.176,0.554 -0.465,0.804 -0.953,0.804 h -1.102 c -0.086,0 -0.156,-0.07 -0.156,-0.156 v -1.535 h 1.184 c 0.203,0 0.258,0.219 0.258,0.34 v 0.086 h 0.242 v -1.309 h -0.242 v 0.086 c 0,0.137 -0.075,0.344 -0.258,0.344 h -1.18 v -1.453 h 1.277 c 0.305,0 0.52,0.254 0.547,0.64 v 0.059 h 0.235 l -0.094,-1.109 h -3.223 v 0.242 h 0.09 c 0.227,0 0.34,0.121 0.34,0.39 v 3.18 c 0,0.277 -0.102,0.391 -0.34,0.391 h -0.09 v 0.238 z m -1.121,4.719 c 0.008,-0.203 0.121,-0.387 0.301,-0.481 0.23,-0.125 0.508,-0.117 0.726,0.024 0.364,0.199 0.594,0.578 0.602,0.996 v 0.054 h 0.25 v -1.527 h -0.25 v 0.047 c -0.004,0.059 -0.035,0.109 -0.082,0.145 -0.074,0.019 -0.16,0.011 -0.227,-0.032 -0.636,-0.308 -1.16,-0.265 -1.589,0.117 -0.27,0.258 -0.411,0.629 -0.372,1.004 0.036,0.364 0.247,0.692 0.559,0.883 0.105,0.063 0.219,0.133 0.344,0.195 0.359,0.18 0.683,0.422 0.961,0.715 0.222,0.274 0.156,0.684 -0.145,0.875 -0.222,0.188 -0.535,0.219 -0.793,0.082 -0.422,-0.207 -0.687,-0.636 -0.683,-1.105 v -0.063 h -0.25 v 1.571 h 0.238 v -0.035 c 0.012,-0.071 0.055,-0.129 0.117,-0.165 0.051,-0.031 0.117,-0.031 0.168,0 0.277,0.149 0.59,0.231 0.906,0.235 0.289,0.004 0.567,-0.086 0.797,-0.258 0.481,-0.34 0.637,-0.98 0.375,-1.504 -0.246,-0.48 -0.883,-0.828 -1.394,-1.109 l -0.094,-0.051 c -0.254,-0.113 -0.43,-0.352 -0.461,-0.629 m 3.594,-7.09 h -0.305 v -1.609 c 0.098,-0.039 0.203,-0.055 0.305,-0.047 0.465,-0.023 0.859,0.336 0.879,0.801 -0.012,0.472 -0.403,0.847 -0.879,0.844 m 1.406,2.398 h 1.078 v -0.238 h -0.09 c -0.117,0 -0.215,-0.118 -0.32,-0.235 L 308,35.598 c 0.52,-0.141 0.891,-0.594 0.93,-1.129 0.015,-0.309 -0.098,-0.61 -0.317,-0.824 -0.324,-0.305 -0.914,-0.434 -1.793,-0.387 h -1.195 v 0.238 h 0.109 c 0.223,0 0.344,0.129 0.344,0.395 v 3.179 c 0,0.274 -0.098,0.395 -0.344,0.395 h -0.109 v 0.234 h 1.684 v -0.234 h -0.09 c -0.235,0 -0.344,-0.125 -0.344,-0.395 v -1.371 h 0.191 l 1.516,1.992 z m 1.051,8.215 0.39,-1.297 h -0.254 v 0.039 c -0.175,0.57 -0.468,0.828 -0.957,0.828 h -1.007 c -0.079,0 -0.164,-0.109 -0.164,-0.211 v -3.148 c 0,-0.285 0.109,-0.414 0.343,-0.414 h 0.09 v -0.239 h -1.68 v 0.239 h 0.094 c 0.223,0 0.344,0.136 0.344,0.414 v 3.148 c 0,0.34 -0.188,0.403 -0.344,0.403 h -0.094 v 0.238 h 3.247 z m 2.054,-1.813 0.543,-1.254 0.543,1.254 z m -1.386,1.575 h -0.141 v 0.238 h 1.27 v -0.238 h -0.114 c -0.07,0 -0.136,-0.032 -0.179,-0.09 -0.024,-0.039 -0.024,-0.086 0,-0.125 l 0.39,-0.926 h 1.449 l 0.403,0.926 c 0.023,0.047 0.015,0.101 -0.016,0.14 -0.031,0.047 -0.082,0.075 -0.137,0.075 h -0.179 v 0.238 h 1.625 v -0.238 h -0.106 c -0.132,0 -0.25,-0.114 -0.343,-0.34 l -1.672,-3.864 c 0,0 -0.039,-0.086 -0.11,-0.093 -0.054,-0.008 -0.109,0.015 -0.136,0.062 l -1.621,3.887 c -0.075,0.16 -0.2,0.34 -0.387,0.34 m 2.531,-9.723 c -0.242,-0.461 -0.887,-0.84 -1.457,-1.148 -0.25,-0.11 -0.422,-0.344 -0.453,-0.614 0,-0.207 0.109,-0.402 0.289,-0.504 0.238,-0.125 0.523,-0.113 0.746,0.036 0.348,0.203 0.559,0.578 0.555,0.98 v 0.063 h 0.23 v -1.508 h -0.219 v 0.054 c -0.003,0.047 -0.027,0.094 -0.066,0.122 -0.09,0.023 -0.18,0.011 -0.258,-0.032 -0.652,-0.293 -1.152,-0.254 -1.57,0.133 -0.274,0.254 -0.418,0.625 -0.387,0.996 0.043,0.371 0.262,0.699 0.582,0.883 l 0.317,0.195 c 0.363,0.184 0.695,0.426 0.984,0.715 0.234,0.274 0.164,0.692 -0.148,0.875 -0.219,0.188 -0.532,0.223 -0.789,0.09 -0.422,-0.207 -0.692,-0.641 -0.684,-1.113 v -0.059 h -0.246 v 1.586 h 0.234 v -0.043 c 0.012,-0.074 0.067,-0.137 0.137,-0.168 0.047,-0.023 0.101,-0.023 0.148,0 0.27,0.149 0.575,0.227 0.879,0.231 0.293,0.003 0.582,-0.086 0.817,-0.262 0.476,-0.34 0.636,-0.981 0.371,-1.504 m 0.902,1.734 h 1.68 v -0.234 h -0.09 c -0.234,0 -0.34,-0.125 -0.34,-0.391 v -3.172 c 0,-0.265 0.109,-0.39 0.34,-0.39 h 0.09 v -0.242 h -1.68 v 0.242 h 0.106 c 0.226,0 0.343,0.121 0.343,0.39 v 3.184 c 0,0.273 -0.101,0.391 -0.343,0.391 h -0.106 z m 5.973,-3.297 h 0.211 l -0.047,-1.054 c -0.004,-0.047 -0.039,-0.086 -0.086,-0.09 h -3.555 c -0.047,0.004 -0.082,0.039 -0.09,0.086 l -0.039,1.058 h 0.219 v -0.043 c 0.027,-0.429 0.188,-0.64 0.488,-0.64 h 0.809 v 3.39 c 0,0.262 -0.109,0.368 -0.359,0.368 h -0.079 v 0.238 h 1.664 v -0.238 h -0.082 c -0.238,0 -0.343,-0.102 -0.343,-0.368 v -3.39 h 0.816 c 0.188,0 0.442,0.066 0.477,0.64 v 0.059 z m 2.164,7.442 c 0.527,-0.051 1.051,0.137 1.426,0.515 0.308,0.383 0.468,0.864 0.453,1.356 0,1.164 -0.684,1.832 -1.871,1.832 -0.121,0 -0.246,-0.012 -0.364,-0.039 v -3.606 c 0.114,-0.046 0.235,-0.062 0.36,-0.043 m 0,-0.343 h -1.715 v 0.238 h 0.098 c 0.14,0 0.343,0.039 0.343,0.41 v 3.149 c 0,0.281 -0.101,0.402 -0.343,0.402 h -0.098 v 0.238 h 2.055 c 1.269,0.047 2.324,-0.969 2.316,-2.238 0.023,-0.566 -0.176,-1.117 -0.555,-1.539 -0.461,-0.477 -1.164,-0.707 -2.093,-0.684 m 2.652,-7.98 v -0.242 h -1.195 v 0.25 h 0.168 c 0.035,0.004 0.066,0.027 0.082,0.058 0.027,0.043 0.027,0.094 0,0.137 l -0.934,1.602 -1.027,-1.571 c -0.028,-0.051 -0.028,-0.113 0,-0.164 0.023,-0.039 0.062,-0.062 0.109,-0.066 h 0.164 v -0.25 h -1.641 v 0.25 h 0.063 c 0.105,0 0.25,0.035 0.398,0.32 l 1.301,2.004 v 1.242 c 0,0.281 -0.097,0.402 -0.34,0.402 h -0.09 v 0.239 h 1.711 V 37.48 h -0.089 c -0.247,0 -0.344,-0.105 -0.344,-0.382 v -1.289 l 1.156,-1.993 c 0.086,-0.168 0.25,-0.281 0.438,-0.3 h 0.066 z"
       style="fill:#4f2984;fill-opacity:1;fill-rule:nonzero;stroke:none"
       transform="scale(1.3333333)" />
    <path
       id="path37"
       d="m 128.953,34.789 h 15.168 v 15.172 h -15.168 z"
       style="fill:#cc9900;fill-opacity:1;fill-rule:nonzero;stroke:none"
       transform="scale(1.3333333)" />
    <path
       id="path38"
       d="m 136.559,37.48 1.855,1.067 c 0.094,0.047 0.188,0.141 0.281,0.234 0.047,0.09 0.09,0.184 0.09,0.278 v 1.668 c 0,0.093 0,0.234 -0.043,0.328 -0.047,0.043 -0.094,0.136 -0.14,0.183 l -1.715,1.02 c -0.094,0.047 -0.188,0.094 -0.328,0.094 -0.137,0 -0.231,-0.047 -0.371,-0.094 l -1.575,-0.926 c -0.093,-0.047 -0.14,-0.094 -0.187,-0.141 -0.047,-0.093 -0.094,-0.23 -0.094,-0.324 v -1.808 c 0,-0.094 0.047,-0.141 0.094,-0.235 0.047,-0.09 0.14,-0.136 0.234,-0.183 z m -4.543,0.094 v 0.602 h 2.226 l 1.02,-0.602 z m 9.089,0 h -3.246 l 1.02,0.602 h 2.226 z m -1.714,1.809 h 1.714 v -0.602 h -1.761 c 0,0 0,0.043 0,0.043 z m -5.661,-0.602 h -1.714 v 0.602 h 1.714 z m 5.661,1.16 h 1.714 v 0.602 h -1.714 z m -7.375,0 v 0.602 h 1.714 v -0.602 z m 7.097,1.668 -0.281,0.188 h 2.227 v -0.652 h -1.715 c 0,0.093 -0.047,0.14 -0.047,0.187 -0.047,0.137 -0.094,0.184 -0.184,0.277 z m -5.242,-0.14 c -0.094,-0.09 -0.094,-0.231 -0.094,-0.371 h -1.718 v 0.605 h 2.183 l -0.094,-0.047 c -0.14,-0.047 -0.23,-0.093 -0.277,-0.187 z m 3.016,1.484 h 4.218 v -0.555 h -3.246 l -0.929,0.555 z m -1.672,-0.601 h -3.199 V 43 h 4.218 l -0.089,-0.047 z m 5.66,1.808 c 0.094,-0.183 0.141,-0.371 0.141,-0.601 h -4.176 v 0.601 z m -8.816,-0.601 c 0.046,0.183 0.093,0.418 0.14,0.601 h 4.082 v -0.601 z m 0.464,1.207 c 0.094,0.183 0.235,0.414 0.372,0.601 h 3.386 v -0.601 z m 7.704,0.601 c 0.136,-0.187 0.277,-0.371 0.371,-0.601 h -3.758 v 0.601 z m -6.821,0.602 c 0.231,0.234 0.465,0.418 0.696,0.605 h 2.132 v -0.605 z m 5.614,0.558 c 0.23,-0.187 0.464,-0.371 0.695,-0.601 h -2.828 v 0.601 z m -3.946,0.649 c 0.371,0.234 0.789,0.418 1.16,0.558 v -0.558 z m 2.969,0 h -1.156 v 0.558 c 0.371,-0.187 0.785,-0.371 1.156,-0.558 z"
       style="fill:#ffffff;fill-opacity:1;fill-rule:nonzero;stroke:none"
       transform="scale(1.3333333)" />
    <path
       id="path39"
       d="m 144.727,34.789 h 75.988 v 15.172 h -75.988 z"
       style="fill:#000000;fill-opacity:1;fill-rule:nonzero;stroke:none"
       transform="scale(1.3333333)" />
    <path
       id="path40"
       d="m 198.633,41.426 c -0.328,0.043 -0.653,0.23 -0.883,0.508 -0.141,0.187 -0.512,0.789 -0.512,0.789 v 2.691 h -0.461 c -0.14,0 -0.234,-0.094 -0.281,-0.187 0,0 0,-0.047 0,-0.047 v -4.407 h 0.465 c 0.141,0 0.277,0.094 0.277,0.235 v 0.789 l 0.047,-0.094 c 0.278,-0.558 0.789,-0.883 1.391,-0.93 h 0.047 c 0.093,0 0.14,0 0.187,0.094 0.047,0.047 0.047,0.094 0.047,0.188 v 0.414 z m -19.719,1.808 c 0,1.485 -0.926,2.274 -2.32,2.274 -1.391,0 -2.317,-0.836 -2.317,-2.274 v -3.945 c 0,-0.137 0.09,-0.23 0.231,-0.277 h 0.558 v 4.222 c 0,1.161 0.649,1.575 1.528,1.575 0.836,0 1.531,-0.414 1.531,-1.575 v -3.945 c 0,-0.137 0.094,-0.277 0.234,-0.277 h 0.555 z m 11.969,-1.3 c -0.047,1.3 -0.555,2.504 -1.438,3.48 h -0.789 c -0.836,-0.976 -1.343,-2.18 -1.343,-3.48 v -0.926 c 0,-0.141 0.093,-0.235 0.23,-0.281 h 0.512 v 1.207 c -0.047,1.066 0.324,2.132 1.019,2.921 0.696,-0.832 1.067,-1.855 1.02,-2.921 v -0.926 c 0,-0.141 0.094,-0.235 0.234,-0.281 h 0.508 z m 2.879,0.789 c 0.742,0 0.926,-0.278 0.926,-0.743 0,-0.464 -0.372,-0.648 -0.883,-0.648 -0.785,0 -1.25,0.418 -1.25,1.344 v 0.047 z m -1.949,0.882 v -0.929 c -0.047,-1.02 0.742,-1.949 1.761,-1.992 0.094,0 0.141,0 0.231,0 0.929,0 1.578,0.414 1.578,1.343 0,0.836 -0.508,1.344 -1.438,1.344 h -1.39 v 0.281 c 0,0.879 0.508,1.203 1.25,1.203 0.465,-0.046 0.883,-0.136 1.347,-0.277 v 0.418 c 0,0.184 0,0.231 -0.187,0.324 -0.371,0.141 -0.789,0.235 -1.16,0.235 -1.114,-0.047 -1.946,-0.606 -1.992,-1.95 m 8.488,-1.578 c 0,0.418 0.277,0.465 0.648,0.555 l 0.559,0.141 c 0.742,0.187 1.297,0.465 1.297,1.39 0,1.024 -0.879,1.395 -1.856,1.395 -0.371,0 -0.789,-0.047 -1.16,-0.141 l -0.184,-0.047 v -0.418 c 0,-0.136 0.094,-0.183 0.231,-0.183 0.047,0 0.047,0 0.094,0 0.324,0.09 0.695,0.09 1.066,0.136 0.742,0 1.113,-0.183 1.113,-0.742 0,-0.418 -0.371,-0.554 -0.742,-0.648 l -0.695,-0.184 c -0.649,-0.047 -1.113,-0.605 -1.113,-1.254 0,-0.836 0.695,-1.343 1.808,-1.343 0.371,0 0.696,0.043 1.024,0.089 0.043,0 0.136,0.047 0.183,0.047 v 0.418 c 0,0.141 -0.094,0.188 -0.23,0.188 -0.324,-0.047 -0.699,-0.094 -1.024,-0.094 -0.648,0.047 -1.019,0.231 -1.019,0.695 m 11.875,2.18 -0.324,0.324 c -0.325,0.371 -0.836,0.606 -1.344,0.606 -0.789,0 -1.254,-0.418 -1.254,-1.625 v -2.551 c 0,-0.141 0.094,-0.234 0.234,-0.277 h 0.508 v 2.828 c 0,0.695 0.277,0.926 0.695,0.926 0.418,0 0.93,-0.461 1.207,-0.743 l 0.278,-0.277 v -2.457 c 0,-0.141 0.094,-0.234 0.234,-0.277 h 0.508 v 4.082 c 0,1.574 -0.926,2.226 -2.551,2.226 h -0.789 v -0.418 c 0,-0.14 0.094,-0.277 0.235,-0.277 h 0.554 c 1.254,0 1.809,-0.371 1.809,-1.488 z m -4.035,0.559 c 0.093,0 0.14,0 0.187,0.089 0.047,0.047 0.09,0.141 0.047,0.188 v 0.418 h -0.652 c -0.743,0.094 -1.438,-0.465 -1.532,-1.254 0,0 0,-0.047 0,-0.047 0,-0.094 0,-0.183 0,-0.277 V 39.66 h 0.465 c 0.141,0 0.231,0.094 0.278,0.235 0,0 0,0.046 0,0.046 v 0.786 h 1.07 c 0.137,0 0.23,0.093 0.277,0.187 v 0.465 h -1.301 v 2.457 c -0.046,0.418 0.235,0.789 0.653,0.883 0.043,0 0.09,0 0.137,0 z M 186.199,39.57 c 0,0.137 -0.094,0.231 -0.234,0.278 h -0.508 v -0.559 c 0,-0.137 0.094,-0.23 0.231,-0.277 h 0.511 z m 0,5.567 v 0.277 h -0.465 c -0.14,0 -0.277,-0.094 -0.277,-0.234 0,0 0,-0.043 0,-0.043 v -3.758 h -0.512 c -0.136,0 -0.23,-0.047 -0.277,-0.188 0,0 0,-0.046 0,-0.093 v -0.414 h 1.254 c 0.137,0 0.23,0.089 0.277,0.23 z m 18.789,-5.567 c 0,0.137 -0.093,0.231 -0.234,0.278 h -0.508 v -0.559 c 0,-0.137 0.09,-0.23 0.231,-0.277 h 0.511 z m 0,5.567 v 0.277 h -0.465 c -0.14,0 -0.277,-0.094 -0.277,-0.234 v -3.801 h -0.512 c -0.14,0 -0.23,-0.047 -0.277,-0.188 v -0.464 h 1.25 c 0.141,0 0.234,0.093 0.281,0.234 z m -24.125,-3.528 0.325,-0.324 c 0.324,-0.371 0.835,-0.601 1.347,-0.601 0.742,0 1.25,0.414 1.25,1.621 v 3.156 h -0.465 c -0.136,0 -0.23,-0.094 -0.277,-0.234 v -2.922 c 0,-0.742 -0.324,-0.926 -0.742,-0.926 -0.465,0 -0.926,0.461 -1.207,0.742 l -0.278,0.277 v 3.063 h -0.464 c -0.137,0 -0.231,-0.094 -0.278,-0.188 0,0 0,-0.046 0,-0.046 V 40.82 h 0.465 c 0.141,0 0.231,0.094 0.277,0.235 v 0.554 z m -24.078,2.922 -0.324,0.371 c -0.324,0.371 -0.836,0.606 -1.344,0.606 -0.742,0 -1.254,-0.418 -1.254,-1.625 v -2.875 c 0,-0.141 0.094,-0.235 0.235,-0.281 h 0.507 v 3.156 c 0,0.742 0.372,0.926 0.743,0.926 0.465,0 0.929,-0.461 1.207,-0.743 l 0.277,-0.277 v -2.828 c 0,-0.141 0.094,-0.234 0.234,-0.277 h 0.508 v 4.453 c 0,0.136 -0.09,0.23 -0.23,0.277 h -0.512 v -0.883 z m 4.082,-3.105 c -0.324,0.043 -0.648,0.23 -0.879,0.508 -0.14,0.14 -0.511,0.742 -0.511,0.742 v 2.691 h -0.465 c -0.137,0 -0.231,-0.094 -0.278,-0.23 v -4.453 h 0.465 c 0.141,0 0.231,0.089 0.278,0.23 v 0.836 l 0.093,-0.094 c 0.278,-0.558 0.789,-0.883 1.391,-0.929 0.094,0 0.141,0.046 0.187,0.093 0.047,0.047 0.047,0.094 0.047,0.188 v 0.418 z m 3.016,3.34 c 0.094,0 0.14,0.043 0.187,0.089 0.047,0.047 0.094,0.141 0.094,0.188 v 0.418 h -0.652 c -0.742,0.094 -1.438,-0.465 -1.532,-1.254 0,0 0,-0.047 0,-0.047 0,-0.094 0,-0.183 0,-0.277 V 39.66 h 0.465 c 0.141,0 0.282,0.094 0.282,0.235 v 0.832 h 1.066 c 0.137,0 0.23,0.093 0.277,0.234 v 0.465 h -1.3 v 2.457 c -0.043,0.418 0.234,0.789 0.652,0.883 0.047,0 0.09,0 0.137,0 z m 2.508,-5.196 c 0,0.137 -0.094,0.231 -0.188,0.278 h -0.508 v -0.559 c 0,-0.137 0.09,-0.23 0.231,-0.277 h 0.512 v 0.558 z m 0,5.567 v 0.277 h -0.465 c -0.141,0 -0.278,-0.094 -0.278,-0.234 0,0 0,-0.043 0,-0.043 v -3.758 h -0.558 c -0.137,0 -0.231,-0.047 -0.277,-0.188 0,0 0,-0.046 0,-0.046 v -0.418 h 1.253 c 0.137,0 0.231,0.093 0.278,0.187 0,0 0,0.047 0,0.047 z m 1.902,-3.528 0.371,-0.324 c 0.324,-0.371 0.832,-0.601 1.344,-0.601 0.742,0 1.254,0.414 1.254,1.621 v 3.156 h -0.465 c -0.141,0 -0.277,-0.094 -0.277,-0.234 v -2.922 c 0,-0.742 -0.372,-0.926 -0.743,-0.926 -0.464,0 -0.929,0.461 -1.207,0.742 l -0.277,0.277 v 3.063 h -0.465 c -0.14,0 -0.234,-0.094 -0.277,-0.234 v -4.454 h 0.461 c 0.14,0 0.234,0.094 0.281,0.235 0,0 0,0.047 0,0.047 z m -16.238,-2.597 v 0 m 0,0 v 0 m -0.789,0.601 c 0.234,0 0.511,0.047 0.742,0.094 0.187,0.047 0.371,0.141 0.605,0.234 0.043,0 0.09,0 0.09,0 0.094,0 0.141,-0.046 0.141,-0.187 v -0.512 c -0.047,-0.047 -0.094,-0.047 -0.141,-0.09 -0.183,-0.093 -0.418,-0.14 -0.601,-0.14 h -0.047 c -0.094,0 -0.184,-0.047 -0.325,-0.047 h -0.324 c -1.855,0 -3.062,1.019 -3.062,2.875 v 0.789 c 0,1.672 0.883,2.879 2.828,2.879 h 0.418 c 0.418,0 0.789,-0.094 1.16,-0.235 l 0.188,-0.093 v -0.508 c 0,-0.141 -0.047,-0.188 -0.141,-0.188 -0.047,0 -0.094,0 -0.141,0.047 -0.324,0.141 -0.695,0.188 -1.066,0.188 h -0.461 c -1.254,0 -1.996,-0.789 -1.996,-2.18 V 41.75 c -0.047,-1.484 0.879,-2.09 2.133,-2.137"
       style="fill:#ffffff;fill-opacity:1;fill-rule:nonzero;stroke:none"
       transform="scale(1.3333333)" />
    <path
       id="path41"
       d="m 49.992,44.262 c 0,-1.016 0.75,-1.696 1.684,-1.696 0.582,0 0.984,0.258 1.273,0.618 l -0.324,0.199 c -0.207,-0.266 -0.555,-0.449 -0.949,-0.449 -0.715,0 -1.262,0.546 -1.262,1.328 0,0.777 0.547,1.34 1.262,1.34 0.394,0 0.719,-0.192 0.883,-0.356 v -0.668 h -1.125 v -0.363 h 1.531 v 1.183 c -0.305,0.34 -0.75,0.567 -1.289,0.567 -0.934,0 -1.684,-0.684 -1.684,-1.703"
       style="fill:#040606;fill-opacity:1;fill-rule:nonzero;stroke:none"
       transform="scale(1.3333333)" />
    <path
       id="path42"
       d="m 55.758,45.898 -0.836,-1.3 H 54.27 v 1.3 h -0.411 v -3.277 h 1.321 c 0.597,0 1.023,0.383 1.023,0.988 0,0.59 -0.402,0.914 -0.848,0.954 l 0.883,1.335 z m 0.023,-2.289 c 0,-0.367 -0.265,-0.625 -0.652,-0.625 H 54.27 v 1.254 h 0.859 c 0.387,0 0.652,-0.261 0.652,-0.629"
       style="fill:#040606;fill-opacity:1;fill-rule:nonzero;stroke:none"
       transform="scale(1.3333333)" />
    <path
       id="path43"
       d="m 59.477,45.898 -0.289,-0.726 h -1.633 l -0.289,0.726 h -0.465 l 1.316,-3.277 h 0.504 l 1.324,3.277 z m -1.106,-2.851 -0.695,1.762 h 1.39 z"
       style="fill:#040606;fill-opacity:1;fill-rule:nonzero;stroke:none"
       transform="scale(1.3333333)" />
    <path
       id="path44"
       d="m 60.586,42.621 h 0.406 v 3.277 h -0.406 z"
       style="fill:#040606;fill-opacity:1;fill-rule:nonzero;stroke:none"
       transform="scale(1.3333333)" />
    <path
       id="path45"
       d="m 64.293,45.898 -1.91,-2.613 v 2.613 h -0.41 v -3.277 h 0.418 l 1.886,2.563 v -2.563 h 0.411 v 3.277 h -0.395"
       style="fill:#040606;fill-opacity:1;fill-rule:nonzero;stroke:none"
       transform="scale(1.3333333)" />
    <path
       id="path46"
       d="m 65.445,45.438 0.243,-0.309 c 0.214,0.238 0.57,0.465 1.031,0.465 0.586,0 0.773,-0.313 0.773,-0.563 0,-0.847 -1.941,-0.379 -1.941,-1.551 0,-0.539 0.48,-0.906 1.125,-0.906 0.5,0 0.89,0.168 1.164,0.457 l -0.246,0.297 c -0.246,-0.269 -0.59,-0.39 -0.949,-0.39 -0.391,0 -0.672,0.21 -0.672,0.519 0,0.738 1.941,0.316 1.941,1.539 0,0.477 -0.324,0.961 -1.207,0.961 -0.57,0 -0.988,-0.215 -1.262,-0.519"
       style="fill:#040606;fill-opacity:1;fill-rule:nonzero;stroke:none"
       transform="scale(1.3333333)" />
    <path
       id="path47"
       d="m 72.059,45.898 -0.836,-1.3 H 70.57 v 1.3 h -0.406 v -3.277 h 1.316 c 0.598,0 1.028,0.383 1.028,0.988 0,0.59 -0.406,0.914 -0.852,0.954 l 0.883,1.335 z m 0.023,-2.289 c 0,-0.367 -0.262,-0.625 -0.652,-0.625 h -0.86 v 1.254 h 0.86 c 0.39,0 0.652,-0.261 0.652,-0.629"
       style="fill:#040606;fill-opacity:1;fill-rule:nonzero;stroke:none"
       transform="scale(1.3333333)" />
    <path
       id="path48"
       d="m 73.34,45.898 v -3.277 h 2.148 v 0.363 h -1.742 v 1.059 h 1.707 v 0.363 h -1.707 v 1.129 h 1.742 v 0.363 H 73.34"
       style="fill:#040606;fill-opacity:1;fill-rule:nonzero;stroke:none"
       transform="scale(1.3333333)" />
    <path
       id="path49"
       d="m 76.129,45.438 0.238,-0.309 c 0.219,0.238 0.571,0.465 1.031,0.465 0.586,0 0.774,-0.313 0.774,-0.563 0,-0.847 -1.942,-0.379 -1.942,-1.551 0,-0.539 0.481,-0.906 1.125,-0.906 0.5,0 0.891,0.168 1.165,0.457 l -0.247,0.297 c -0.246,-0.269 -0.589,-0.39 -0.945,-0.39 -0.394,0 -0.676,0.21 -0.676,0.519 0,0.738 1.942,0.316 1.942,1.539 0,0.477 -0.324,0.961 -1.207,0.961 -0.571,0 -0.989,-0.215 -1.258,-0.519"
       style="fill:#040606;fill-opacity:1;fill-rule:nonzero;stroke:none"
       transform="scale(1.3333333)" />
    <path
       id="path50"
       d="m 79.402,45.898 v -3.277 h 2.149 v 0.363 h -1.738 v 1.059 h 1.703 v 0.363 h -1.703 v 1.129 h 1.738 v 0.363 h -2.149"
       style="fill:#040606;fill-opacity:1;fill-rule:nonzero;stroke:none"
       transform="scale(1.3333333)" />
    <path
       id="path51"
       d="M 84.809,45.898 84.52,45.172 h -1.633 l -0.289,0.726 h -0.465 l 1.316,-3.277 h 0.504 l 1.324,3.277 z m -1.106,-2.851 -0.699,1.762 h 1.391 z"
       style="fill:#040606;fill-opacity:1;fill-rule:nonzero;stroke:none"
       transform="scale(1.3333333)" />
    <path
       id="path52"
       d="m 87.813,45.898 -0.836,-1.3 h -0.653 v 1.3 h -0.41 v -3.277 h 1.32 c 0.598,0 1.024,0.383 1.024,0.988 0,0.59 -0.403,0.914 -0.848,0.954 l 0.883,1.335 z m 0.023,-2.289 c 0,-0.367 -0.266,-0.625 -0.652,-0.625 h -0.86 v 1.254 h 0.86 c 0.386,0 0.652,-0.261 0.652,-0.629"
       style="fill:#040606;fill-opacity:1;fill-rule:nonzero;stroke:none"
       transform="scale(1.3333333)" />
    <path
       id="path53"
       d="m 88.914,44.262 c 0,-1.004 0.742,-1.696 1.684,-1.696 0.582,0 0.984,0.282 1.246,0.653 L 91.5,43.41 c -0.187,-0.277 -0.527,-0.476 -0.902,-0.476 -0.715,0 -1.262,0.546 -1.262,1.328 0,0.777 0.547,1.332 1.262,1.332 0.375,0 0.715,-0.196 0.902,-0.477 l 0.348,0.192 c -0.274,0.375 -0.668,0.648 -1.25,0.648 -0.942,0 -1.684,-0.687 -1.684,-1.695"
       style="fill:#040606;fill-opacity:1;fill-rule:nonzero;stroke:none"
       transform="scale(1.3333333)" />
    <path
       id="path54"
       d="m 94.883,45.898 v -1.503 h -1.914 v 1.503 h -0.41 v -3.277 h 0.41 v 1.41 h 1.914 v -1.41 h 0.41 v 3.277 h -0.41"
       style="fill:#040606;fill-opacity:1;fill-rule:nonzero;stroke:none"
       transform="scale(1.3333333)" />
    <path
       id="path55"
       d="m 52.242,50.719 c -0.097,-0.082 -0.226,-0.207 -0.359,-0.344 -0.238,0.242 -0.543,0.402 -0.942,0.402 -0.566,0 -1.023,-0.304 -1.023,-0.914 0,-0.508 0.344,-0.769 0.723,-0.972 -0.149,-0.25 -0.25,-0.504 -0.25,-0.735 0,-0.437 0.363,-0.761 0.824,-0.761 0.43,0 0.742,0.23 0.742,0.64 0,0.492 -0.418,0.711 -0.836,0.926 0.133,0.184 0.274,0.344 0.379,0.465 0.133,0.16 0.262,0.301 0.391,0.437 0.179,-0.269 0.293,-0.562 0.351,-0.746 l 0.321,0.137 c -0.114,0.262 -0.25,0.57 -0.45,0.848 0.192,0.199 0.399,0.398 0.641,0.617 z m -0.578,-0.571 c -0.187,-0.195 -0.359,-0.382 -0.453,-0.496 -0.137,-0.156 -0.281,-0.332 -0.414,-0.519 -0.27,0.168 -0.481,0.367 -0.481,0.707 0,0.41 0.317,0.633 0.661,0.633 0.269,0 0.5,-0.137 0.687,-0.325 z m -0.695,-1.421 c 0.351,-0.172 0.648,-0.352 0.648,-0.676 0,-0.238 -0.164,-0.367 -0.387,-0.367 -0.25,0 -0.457,0.195 -0.457,0.476 0,0.172 0.082,0.375 0.196,0.567"
       style="fill:#040606;fill-opacity:1;fill-rule:nonzero;stroke:none"
       transform="scale(1.3333333)" />
    <path
       id="path56"
       d="m 54.914,50.719 v -3.278 h 1.121 c 1.016,0 1.68,0.715 1.68,1.641 0,0.934 -0.664,1.637 -1.68,1.637 z m 2.379,-1.637 c 0,-0.707 -0.449,-1.277 -1.258,-1.277 H 55.32 v 2.55 h 0.715 c 0.797,0 1.258,-0.57 1.258,-1.273"
       style="fill:#040606;fill-opacity:1;fill-rule:nonzero;stroke:none"
       transform="scale(1.3333333)" />
    <path
       id="path57"
       d="m 58.543,50.719 v -3.278 h 2.145 v 0.364 h -1.739 v 1.058 h 1.703 v 0.364 h -1.703 v 1.128 h 1.739 v 0.364 h -2.145"
       style="fill:#040606;fill-opacity:1;fill-rule:nonzero;stroke:none"
       transform="scale(1.3333333)" />
    <path
       id="path58"
       d="M 62.586,50.719 61.27,47.441 h 0.464 l 1.106,2.832 1.105,-2.832 h 0.469 l -1.324,3.278 h -0.504"
       style="fill:#040606;fill-opacity:1;fill-rule:nonzero;stroke:none"
       transform="scale(1.3333333)" />
    <path
       id="path59"
       d="m 65.055,50.719 v -3.278 h 2.144 v 0.364 h -1.738 v 1.058 h 1.707 v 0.364 h -1.707 v 1.128 h 1.738 v 0.364 h -2.144"
       style="fill:#040606;fill-opacity:1;fill-rule:nonzero;stroke:none"
       transform="scale(1.3333333)" />
    <path
       id="path60"
       d="m 68.039,50.719 v -3.278 h 0.406 v 2.914 h 1.524 v 0.364 h -1.93"
       style="fill:#040606;fill-opacity:1;fill-rule:nonzero;stroke:none"
       transform="scale(1.3333333)" />
    <path
       id="path61"
       d="m 70.395,49.082 c 0,-0.965 0.652,-1.695 1.625,-1.695 0.968,0 1.628,0.73 1.628,1.695 0,0.969 -0.66,1.695 -1.628,1.695 -0.973,0 -1.625,-0.726 -1.625,-1.695 z m 2.832,0 c 0,-0.766 -0.473,-1.328 -1.207,-1.328 -0.735,0 -1.204,0.562 -1.204,1.328 0,0.762 0.469,1.332 1.204,1.332 0.734,0 1.207,-0.57 1.207,-1.332"
       style="fill:#040606;fill-opacity:1;fill-rule:nonzero;stroke:none"
       transform="scale(1.3333333)" />
    <path
       id="path62"
       d="m 74.484,50.719 v -3.278 h 1.321 c 0.656,0 1.023,0.454 1.023,0.989 0,0.535 -0.375,0.988 -1.023,0.988 h -0.91 v 1.301 z m 1.922,-2.289 c 0,-0.367 -0.265,-0.625 -0.652,-0.625 h -0.859 v 1.25 h 0.859 c 0.387,0 0.652,-0.258 0.652,-0.625"
       style="fill:#040606;fill-opacity:1;fill-rule:nonzero;stroke:none"
       transform="scale(1.3333333)" />
    <path
       id="path63"
       d="m 80.324,50.719 v -2.696 l -1.113,2.696 h -0.168 l -1.109,-2.696 v 2.696 h -0.411 v -3.278 h 0.586 l 1.016,2.469 1.023,-2.469 h 0.582 v 3.278 h -0.406"
       style="fill:#040606;fill-opacity:1;fill-rule:nonzero;stroke:none"
       transform="scale(1.3333333)" />
    <path
       id="path64"
       d="m 81.723,50.719 v -3.278 h 2.148 v 0.364 h -1.738 v 1.058 h 1.703 v 0.364 h -1.703 v 1.128 h 1.738 v 0.364 h -2.148"
       style="fill:#040606;fill-opacity:1;fill-rule:nonzero;stroke:none"
       transform="scale(1.3333333)" />
    <path
       id="path65"
       d="m 87.027,50.719 -1.91,-2.614 v 2.614 h -0.406 v -3.278 h 0.418 l 1.887,2.563 v -2.563 h 0.406 v 3.278 h -0.395"
       style="fill:#040606;fill-opacity:1;fill-rule:nonzero;stroke:none"
       transform="scale(1.3333333)" />
    <path
       id="path66"
       d="m 89.156,50.719 v -2.914 h -1.039 v -0.364 h 2.488 v 0.364 h -1.042 v 2.914 h -0.407"
       style="fill:#040606;fill-opacity:1;fill-rule:nonzero;stroke:none"
       transform="scale(1.3333333)" />
    <path
       id="path67"
       d="m 49.992,53.902 c 0,-1.004 0.742,-1.695 1.684,-1.695 0.582,0 0.984,0.281 1.246,0.648 l -0.344,0.192 c -0.187,-0.274 -0.527,-0.477 -0.902,-0.477 -0.715,0 -1.262,0.551 -1.262,1.332 0,0.778 0.547,1.332 1.262,1.332 0.375,0 0.715,-0.195 0.902,-0.476 l 0.348,0.191 c -0.274,0.375 -0.668,0.649 -1.25,0.649 -0.942,0 -1.684,-0.688 -1.684,-1.696"
       style="fill:#040606;fill-opacity:1;fill-rule:nonzero;stroke:none"
       transform="scale(1.3333333)" />
    <path
       id="path68"
       d="m 53.422,53.902 c 0,-0.964 0.656,-1.695 1.629,-1.695 0.969,0 1.625,0.731 1.625,1.695 0,0.969 -0.656,1.696 -1.625,1.696 -0.973,0 -1.629,-0.727 -1.629,-1.696 z m 2.832,0 c 0,-0.765 -0.473,-1.332 -1.203,-1.332 -0.738,0 -1.203,0.567 -1.203,1.332 0,0.762 0.465,1.332 1.203,1.332 0.73,0 1.203,-0.57 1.203,-1.332"
       style="fill:#040606;fill-opacity:1;fill-rule:nonzero;stroke:none"
       transform="scale(1.3333333)" />
    <path
       id="path69"
       d="m 59.41,55.539 -0.836,-1.301 h -0.652 v 1.301 h -0.406 v -3.277 h 1.316 c 0.598,0 1.027,0.383 1.027,0.988 0,0.59 -0.402,0.914 -0.851,0.953 l 0.887,1.336 z m 0.028,-2.289 c 0,-0.367 -0.266,-0.625 -0.657,-0.625 h -0.859 v 1.254 h 0.859 c 0.391,0 0.657,-0.262 0.657,-0.629"
       style="fill:#040606;fill-opacity:1;fill-rule:nonzero;stroke:none"
       transform="scale(1.3333333)" />
    <path
       id="path70"
       d="m 60.691,55.539 v -3.277 h 1.317 c 0.66,0 1.027,0.453 1.027,0.988 0,0.535 -0.379,0.988 -1.027,0.988 h -0.906 v 1.301 z m 1.922,-2.289 c 0,-0.367 -0.265,-0.625 -0.652,-0.625 h -0.859 v 1.25 h 0.859 c 0.387,0 0.652,-0.258 0.652,-0.625"
       style="fill:#040606;fill-opacity:1;fill-rule:nonzero;stroke:none"
       transform="scale(1.3333333)" />
    <path
       id="path71"
       d="m 63.641,53.902 c 0,-0.964 0.656,-1.695 1.629,-1.695 0.968,0 1.625,0.731 1.625,1.695 0,0.969 -0.657,1.696 -1.625,1.696 -0.973,0 -1.629,-0.727 -1.629,-1.696 z m 2.832,0 c 0,-0.765 -0.473,-1.332 -1.203,-1.332 -0.739,0 -1.204,0.567 -1.204,1.332 0,0.762 0.465,1.332 1.204,1.332 0.73,0 1.203,-0.57 1.203,-1.332"
       style="fill:#040606;fill-opacity:1;fill-rule:nonzero;stroke:none"
       transform="scale(1.3333333)" />
    <path
       id="path72"
       d="m 69.629,55.539 -0.836,-1.301 h -0.652 v 1.301 h -0.407 v -3.277 h 1.317 c 0.597,0 1.027,0.383 1.027,0.988 0,0.59 -0.402,0.914 -0.851,0.953 l 0.886,1.336 z m 0.027,-2.289 c 0,-0.367 -0.265,-0.625 -0.656,-0.625 h -0.859 v 1.254 H 69 c 0.391,0 0.656,-0.262 0.656,-0.629"
       style="fill:#040606;fill-opacity:1;fill-rule:nonzero;stroke:none"
       transform="scale(1.3333333)" />
    <path
       id="path73"
       d="M 73.352,55.539 73.059,54.813 H 71.43 l -0.289,0.726 h -0.469 l 1.316,-3.277 h 0.508 l 1.32,3.277 z m -1.106,-2.855 -0.699,1.765 h 1.391 z"
       style="fill:#040606;fill-opacity:1;fill-rule:nonzero;stroke:none"
       transform="scale(1.3333333)" />
    <path
       id="path74"
       d="M 74.855,55.539 V 52.625 H 73.82 v -0.363 h 2.485 v 0.363 h -1.043 v 2.914 h -0.407"
       style="fill:#040606;fill-opacity:1;fill-rule:nonzero;stroke:none"
       transform="scale(1.3333333)" />
    <path
       id="path75"
       d="m 77,52.262 h 0.406 v 3.277 H 77 Z"
       style="fill:#040606;fill-opacity:1;fill-rule:nonzero;stroke:none"
       transform="scale(1.3333333)" />
    <path
       id="path76"
       d="m 78.242,53.902 c 0,-0.964 0.653,-1.695 1.625,-1.695 0.969,0 1.625,0.731 1.625,1.695 0,0.969 -0.656,1.696 -1.625,1.696 -0.972,0 -1.625,-0.727 -1.625,-1.696 z m 2.828,0 c 0,-0.765 -0.472,-1.332 -1.203,-1.332 -0.738,0 -1.203,0.567 -1.203,1.332 0,0.762 0.465,1.332 1.203,1.332 0.731,0 1.203,-0.57 1.203,-1.332"
       style="fill:#040606;fill-opacity:1;fill-rule:nonzero;stroke:none"
       transform="scale(1.3333333)" />
    <path
       id="path77"
       d="m 84.652,55.539 -1.914,-2.613 v 2.613 h -0.406 v -3.277 h 0.418 l 1.887,2.562 v -2.562 h 0.406 v 3.277 h -0.391"
       style="fill:#040606;fill-opacity:1;fill-rule:nonzero;stroke:none"
       transform="scale(1.3333333)" />
    <path
       id="path78"
       d="m 46.367,56.809 c 2.176,-3.645 1.914,-5.528 -0.238,-10.063 -0.945,-2.055 -1.848,-3.555 -2.793,-5.605 -0.691,-1.625 -1.34,-4.153 -1.898,-5.567 -0.981,3.215 1.792,17 4.929,21.235"
       style="fill:#267d4a;fill-opacity:1;fill-rule:nonzero;stroke:none"
       transform="scale(1.3333333)" />
    <path
       id="path79"
       d="m 39.203,49.777 c -3.82,-2.105 -6.18,-3.129 -10.137,-4.183 -1.902,-0.43 -8.906,-1.356 -10.75,-0.883 1.356,0.535 3.411,1.16 5.118,1.742 5.718,2.535 10.664,6.93 15.769,3.324"
       style="fill:#267d4a;fill-opacity:1;fill-rule:nonzero;stroke:none"
       transform="scale(1.3333333)" />
    <path
       id="path80"
       d="m 39.211,49.773 c 2.992,-5.496 -0.285,-8.73 -3.238,-15.152 -1.008,-2.019 -1.403,-3.551 -2.274,-5.367 -0.941,2.687 1.977,15.965 5.512,20.519"
       style="fill:#267d4a;fill-opacity:1;fill-rule:nonzero;stroke:none"
       transform="scale(1.3333333)" />
    <path
       id="path81"
       d="m 46.363,56.809 c -3.656,-3.118 -17.308,-5.235 -21.101,-4.286 0.676,0.403 1.734,0.485 2.597,0.735 4.5,1.406 9.59,4.281 13.082,4.906 2.278,0.348 2.848,-0.137 5.422,-1.355"
       style="fill:#267d4a;fill-opacity:1;fill-rule:nonzero;stroke:none"
       transform="scale(1.3333333)" />
    <path
       id="path82"
       d="m 32.758,43.461 c -1.016,-0.469 -2.149,-1.481 -4.176,-2.41 -1.172,-0.664 -2.891,-1.207 -4.258,-1.711 -2.222,-0.777 -7.062,-2.02 -8.855,-1.86 0.82,0.625 3.199,1.598 4.215,2.063 3.863,2.023 9.062,6.5 13.074,3.918"
       style="fill:#267d4a;fill-opacity:1;fill-rule:nonzero;stroke:none"
       transform="scale(1.3333333)" />
    <path
       id="path83"
       d="m 32.766,43.465 c -0.493,-1.004 -1.536,-2.113 -2.516,-4.117 -0.691,-1.153 -1.277,-2.86 -1.816,-4.211 -0.832,-2.203 -2.196,-7.008 -2.082,-8.805 0.644,0.801 1.675,3.156 2.168,4.16 2.117,3.813 6.726,8.895 4.246,12.973"
       style="fill:#267d4a;fill-opacity:1;fill-rule:nonzero;stroke:none"
       transform="scale(1.3333333)" />
    <path
       id="path84"
       d="m 20.496,31.035 c -0.242,-1.39 -1.297,-3.359 -1.332,-4.605 2.305,1.929 6.781,8.148 6.996,10.441 l -0.008,0.004 C 23.867,36.59 17.785,31.93 15.926,29.566 c 1.246,0.075 3.179,1.188 4.566,1.469 h 0.004"
       style="fill:#267d4a;fill-opacity:1;fill-rule:nonzero;stroke:none"
       transform="scale(1.3333333)" />
    <path
       id="path85"
       d="m 49.742,31.332 c 0,-3.109 2.356,-5.082 5.231,-5.082 2.047,0 3.328,1.031 4.066,2.195 l -1.738,0.942 c -0.446,-0.692 -1.285,-1.282 -2.328,-1.282 -1.785,0 -3.078,1.372 -3.078,3.227 0,1.856 1.293,3.227 3.078,3.227 0.867,0 1.691,-0.383 2.09,-0.75 v -1.18 h -2.594 v -1.828 h 4.687 v 3.773 c -1.004,1.117 -2.402,1.856 -4.183,1.856 -2.875,0 -5.231,-2.004 -5.231,-5.098"
       style="fill:#040606;fill-opacity:1;fill-rule:nonzero;stroke:none"
       transform="scale(1.3333333)" />
    <path
       id="path86"
       d="m 68.582,36.238 -1.93,-3.492 h -1.531 v 3.492 h -2.094 v -9.824 h 4.598 c 2.047,0 3.301,1.34 3.301,3.164 0,1.738 -1.09,2.668 -2.153,2.918 l 2.211,3.742 z m 0.207,-6.66 c 0,-0.824 -0.633,-1.324 -1.473,-1.324 h -2.195 v 2.652 h 2.195 c 0.84,0 1.473,-0.5 1.473,-1.328"
       style="fill:#040606;fill-opacity:1;fill-rule:nonzero;stroke:none"
       transform="scale(1.3333333)" />
    <path
       id="path87"
       d="m 74.785,36.238 v -9.824 h 3.875 c 3.078,0 5.215,1.957 5.215,4.918 0,2.961 -2.137,4.906 -5.215,4.906 z m 6.953,-4.906 c 0,-1.738 -1.062,-3.078 -3.078,-3.078 h -1.785 v 6.144 h 1.785 c 1.945,0 3.078,-1.402 3.078,-3.066"
       style="fill:#040606;fill-opacity:1;fill-rule:nonzero;stroke:none"
       transform="scale(1.3333333)" />
    <path
       id="path88"
       d="m 86.512,31.332 c 0,-3.019 2.281,-5.082 5.23,-5.082 2.164,0 3.418,1.18 4.11,2.402 l -1.797,0.883 c -0.414,-0.797 -1.297,-1.43 -2.313,-1.43 -1.785,0 -3.082,1.372 -3.082,3.227 0,1.856 1.297,3.227 3.082,3.227 1.016,0 1.899,-0.618 2.313,-1.43 L 95.852,34 c -0.707,1.223 -1.946,2.414 -4.11,2.414 -2.949,0 -5.23,-2.062 -5.23,-5.082"
       style="fill:#040606;fill-opacity:1;fill-rule:nonzero;stroke:none"
       transform="scale(1.3333333)" />
    <path
       id="path89"
       d="m 49.742,39.438 h 46.109 v 0.414 H 49.742 Z"
       style="fill:#040606;fill-opacity:1;fill-rule:nonzero;stroke:none"
       transform="scale(1.3333333)" />
    <path
       id="path90"
       d="M 49.742,58.09 H 95.851 V 58.5 H 49.742 Z"
       style="fill:#040606;fill-opacity:1;fill-rule:nonzero;stroke:none"
       transform="scale(1.3333333)" />
    <path
       id="path91"
       d="m 96.945,26.391 -0.226,0.55 -0.227,-0.55 h -0.176 v 0.82 h 0.141 V 26.66 l 0.227,0.551 h 0.07 l 0.226,-0.555 v 0.555 h 0.141 v -0.82 h -0.176"
       style="fill:#040606;fill-opacity:1;fill-rule:nonzero;stroke:none"
       transform="scale(1.3333333)" />
    <path
       id="path92"
       d="m 95.582,26.52 h 0.242 v 0.691 h 0.141 V 26.52 h 0.246 v -0.129 h -0.629 v 0.129"
       style="fill:#040606;fill-opacity:1;fill-rule:nonzero;stroke:none"
       transform="scale(1.3333333)" />
    <path
       id="path93"
       d="m 373.953,34.961 c -0.156,0 -0.211,-0.055 -0.367,-0.055 -0.109,0 -0.215,0 -0.371,0.055 h -0.055 v -0.055 c 0.055,-0.683 0.055,-1.32 0.055,-1.953 v -2.797 c -0.527,0 -1.11,0.055 -1.531,0.106 h -0.106 v -0.106 c 0,-0.105 0.055,-0.156 0.055,-0.211 0,-0.05 0,-0.156 -0.055,-0.211 v -0.105 h 0.055 c 0.683,0 1.265,0.055 1.953,0.055 0.684,0 1.266,0 1.949,-0.055 h 0.055 v 0.055 c 0,0.105 -0.055,0.156 -0.055,0.211 0,0.05 0,0.156 0.055,0.21 v 0.106 h -0.211 c -0.422,-0.055 -1.055,-0.106 -1.531,-0.106 v 2.797 c 0,0.684 0.054,1.321 0.054,1.953 z m 7.18,0 c -0.16,0 -0.211,-0.055 -0.371,-0.055 -0.106,0 -0.211,0 -0.371,0.055 h -0.051 v -0.055 c 0.051,-0.683 0.051,-1.32 0.051,-1.953 V 32.32 h -3.008 v 0.633 c 0,0.688 0.055,1.32 0.055,1.953 v 0.055 h -0.055 c -0.156,0 -0.211,-0.055 -0.367,-0.055 -0.106,0 -0.211,0 -0.371,0.055 h -0.051 v -0.055 c 0.051,-0.683 0.051,-1.32 0.051,-1.953 v -1.32 c 0,-0.684 -0.051,-1.317 -0.051,-1.949 h 0.051 c 0.16,0 0.21,0.05 0.371,0.05 0.105,0 0.211,0 0.367,-0.05 h 0.055 v 0.05 c -0.055,0.633 -0.055,1.266 -0.055,1.954 v 0.21 h 3.008 v -0.265 c 0,-0.684 -0.051,-1.317 -0.051,-1.949 h 0.051 c 0.16,0 0.214,0.05 0.371,0.05 0.105,0 0.211,0 0.371,-0.05 h 0.051 v 0.05 c -0.051,0.633 -0.051,1.266 -0.051,1.954 v 1.265 c 0,0.688 0.051,1.32 0.051,1.953 l -0.051,0.055 c 0.051,-0.055 0,0 0,0 z m 4.433,0 c -0.425,0 -0.898,-0.055 -1.375,-0.055 -0.472,0 -0.894,0 -1.371,0.055 h -0.054 v -0.055 c 0.054,-0.683 0.054,-1.32 0.054,-1.953 v -1.32 c 0,-0.684 -0.054,-1.317 -0.054,-1.949 h 0.054 c 0.477,0.05 0.899,0.05 1.371,0.05 0.477,0 0.899,0 1.321,-0.05 h 0.054 v 0.527 h -0.054 c -0.633,-0.106 -1.004,-0.16 -1.953,-0.16 0,0.265 -0.051,0.582 -0.051,0.898 v 0.949 c 0.844,0 1.316,-0.054 1.793,-0.105 h 0.054 v 0.582 h -0.054 C 384.824,32.32 383.93,32.32 383.508,32.32 v 2.114 c 0.683,0 1.527,0 2.004,-0.106 h 0.105 z m 7.547,-5.277 v -0.055 h 0.106 c 0.105,0 0.211,0.055 0.316,0.055 0.051,0 0.156,0 0.211,-0.055 h 0.106 v 0.055 c -0.055,0.683 -0.161,2.004 -0.161,3.113 0,1.371 -0.789,2.215 -2.164,2.215 -0.738,0 -1.316,-0.211 -1.632,-0.578 -0.372,-0.371 -0.532,-0.954 -0.532,-1.637 0,-0.477 0.055,-0.793 0.055,-1.164 0,-0.844 -0.055,-1.528 -0.055,-1.949 h 0.055 c 0.156,0 0.262,0.05 0.367,0.05 0.11,0 0.215,0 0.32,-0.05 h 0.051 v 0.05 c -0.051,0.422 -0.105,1.477 -0.105,2.586 0,1.055 0,2.325 1.637,2.325 0.792,0 1.16,-0.372 1.425,-0.848 0.211,-0.473 0.211,-1.106 0.211,-1.582 -0.16,-1.531 -0.16,-2.215 -0.211,-2.531 z m 6.703,5.382 h -0.105 v -0.054 l 0.051,-0.051 -0.051,0.051 v 0.054 c -1.109,-1.32 -2.43,-2.746 -3.75,-4.066 v 1.426 c 0,0.687 0.055,2.219 0.055,2.535 v 0.105 h -0.055 c -0.106,0 -0.211,-0.054 -0.211,-0.054 -0.105,0 -0.211,0 -0.262,0.054 h -0.105 v -0.105 c 0.051,-0.316 0.156,-2.27 0.156,-3.273 v -2.059 h 0.211 c 1.164,1.266 2.797,3.008 3.75,4.012 0,-1.321 0,-2.746 -0.055,-3.852 v -0.105 h 0.055 c 0.105,0 0.211,0.05 0.211,0.05 0.105,0 0.156,0 0.211,-0.05 h 0.105 v 0.105 c -0.105,0.422 -0.211,1.949 -0.211,2.531 z m 2.481,-0.105 c -0.16,0 -0.211,-0.055 -0.371,-0.055 -0.106,0 -0.211,0 -0.367,0.055 h -0.055 v -0.055 c 0.055,-0.683 0.055,-1.32 0.055,-1.953 v -1.32 c 0,-0.684 -0.055,-1.317 -0.055,-1.949 h 0.055 c 0.156,0 0.211,0.05 0.367,0.05 0.105,0 0.211,0 0.371,-0.05 h 0.051 v 0.05 c -0.051,0.633 -0.051,1.321 -0.051,1.899 v 1.269 c 0,0.684 0.051,1.321 0.051,1.953 l -0.051,0.106 c 0.051,-0.055 0,0 0,0 z m 1.105,-5.277 c 0.161,0 0.266,0.05 0.371,0.05 0.161,0 0.266,0 0.372,-0.05 0.421,1.316 1.105,2.902 1.687,4.429 0.582,-1.211 1.426,-3.429 1.688,-4.429 0.105,0 0.21,0.05 0.265,0.05 0.106,0 0.211,0 0.262,-0.05 -0.789,1.738 -1.527,3.429 -2.164,5.171 -0.106,0 -0.211,-0.054 -0.211,-0.054 -0.106,0 -0.211,0 -0.211,0.054 -0.367,-1.214 -1.316,-3.433 -2.059,-5.171 z m 8.606,5.277 c -0.422,0 -0.899,-0.055 -1.375,-0.055 -0.473,0 -0.895,0 -1.371,0.055 h -0.051 v -0.055 c 0.051,-0.683 0.051,-1.32 0.051,-1.953 v -1.32 c 0,-0.684 -0.051,-1.317 -0.051,-1.949 h 0.051 c 0.476,0 0.898,0.05 1.371,0.05 0.476,0 0.898,0 1.32,-0.05 h 0.055 v 0.527 h -0.055 c -0.633,-0.106 -1,-0.16 -1.953,-0.16 0,0.265 -0.051,0.582 -0.051,0.898 v 0.949 c 0.844,0 1.321,-0.054 1.793,-0.105 h 0.055 v 0.582 C 411.32,32.32 410.422,32.32 410,32.32 v 2.114 c 0.688,0 1.531,0 2.008,-0.106 h 0.105 z m 5.859,-0.371 c 0.106,-0.262 0.106,-0.422 0.156,-0.688 v -0.05 h 0.161 v 0.05 -0.05 h 0.05 v 0.05 c 0.161,0.321 0.528,0.743 1.11,0.743 0.683,0 1.054,-0.477 1.054,-1.059 0,-0.684 -0.582,-0.844 -1.109,-1.106 -0.633,-0.21 -1.211,-0.582 -1.211,-1.48 0,-0.844 0.684,-1.477 1.688,-1.477 0.476,0 0.843,0.106 1.109,0.372 l 0.051,0.05 V 30 c -0.106,0.211 -0.156,0.316 -0.211,0.633 v 0.051 h -0.211 v -0.051 c -0.106,-0.266 -0.316,-0.688 -0.844,-0.688 -0.527,0 -0.898,0.371 -0.949,0.899 0,0.683 0.578,0.844 1.105,1.109 0.637,0.211 1.215,0.527 1.215,1.371 0,0.949 -0.683,1.742 -1.898,1.742 -0.633,0 -1.004,-0.265 -1.266,-0.476 z m 5.172,0.371 c -0.16,0 -0.211,-0.055 -0.371,-0.055 -0.105,0 -0.211,0 -0.371,0.055 h -0.051 v -0.055 c 0.051,-0.683 0.051,-1.32 0.051,-1.953 v -1.32 c 0,-0.684 -0.051,-1.317 -0.051,-1.949 h 0.051 c 0.16,0 0.215,0.05 0.371,0.05 0.105,0 0.211,0 0.371,-0.05 h 0.051 v 0.05 c -0.051,0.688 -0.051,1.321 -0.051,1.954 v 1.265 c 0,0.688 0.051,1.32 0.051,1.953 l -0.051,0.055 c 0.051,-0.055 0,0 0,0 z m 3.43,0 c -0.16,0 -0.211,-0.055 -0.371,-0.055 -0.106,0 -0.211,0 -0.368,0.055 h -0.054 v -0.055 c 0.054,-0.683 0.054,-1.32 0.054,-1.953 v -2.797 c -0.527,0 -1.109,0.055 -1.531,0.106 h -0.105 v -0.106 c 0,-0.105 0.051,-0.156 0.051,-0.211 0,-0.05 0,-0.156 -0.051,-0.211 v -0.105 h 0.051 c 0.632,0.055 1.269,0.055 1.902,0.055 0.683,0 1.266,0 1.953,-0.055 h 0.051 v 0.055 c 0,0.105 -0.051,0.156 -0.051,0.211 0,0.05 0,0.156 0.051,0.21 v 0.106 h -0.106 c -0.422,-0.055 -1.054,-0.106 -1.531,-0.106 v 2.797 c 0,0.684 0.055,1.321 0.055,1.953 z m 2.164,-5.277 -0.055,-0.106 h 0.106 c 0.16,0 0.265,0.051 0.421,0.051 0.161,0 0.266,0 0.426,-0.051 h 0.051 v 0.106 c 0.422,0.843 0.898,1.632 1.371,2.531 0.477,-0.688 1.004,-1.688 1.375,-2.531 v -0.055 h 0.051 c 0.105,0 0.211,0.055 0.266,0.055 0.05,0 0.21,0 0.261,-0.055 h 0.16 l -0.054,0.055 c -0.949,1.476 -1.532,2.32 -1.793,2.953 0,0.738 0,1.742 0.051,2.218 v 0.106 h -0.051 c -0.16,0 -0.211,-0.055 -0.371,-0.055 -0.106,0 -0.211,0 -0.368,0.055 h -0.054 v -0.055 c 0.054,-0.527 0.054,-1.32 0.054,-2.109 -0.371,-0.582 -1.531,-2.641 -1.847,-3.113 z M 374.48,42.137 c 0,0.422 -0.21,1.16 -0.843,1.742 -0.477,0.527 -0.899,0.527 -1.11,0.527 -0.527,0 -0.843,-0.367 -0.789,-1.054 0.051,-0.477 0.317,-1.215 0.844,-1.743 0.422,-0.367 0.738,-0.527 1.109,-0.527 0.579,0.106 0.789,0.527 0.789,1.055 z m -1.371,-0.367 c -0.476,0.632 -0.738,1.527 -0.793,1.953 0,0.261 0.106,0.527 0.317,0.527 0.211,0 0.371,-0.105 0.633,-0.422 0.32,-0.476 0.687,-1.531 0.687,-1.902 0,-0.211 -0.051,-0.528 -0.316,-0.528 -0.16,0 -0.371,0.106 -0.528,0.372 z m 3.219,-0.161 c -0.051,0.161 -0.105,0.371 -0.211,0.688 -0.211,0.844 -0.422,1.582 -0.687,2.48 -0.211,0.684 -0.473,1.11 -0.633,1.266 -0.106,0.105 -0.473,0.422 -0.949,0.422 -0.422,0 -0.582,-0.262 -0.582,-0.367 0,-0.16 0.105,-0.266 0.211,-0.321 0.054,-0.05 0.16,0 0.214,0.055 0.211,0.211 0.422,0.316 0.633,0.316 0.156,0 0.317,-0.05 0.528,-0.687 0.367,-1.211 0.632,-2.531 1.003,-3.797 h -0.687 c -0.105,-0.105 -0.055,-0.211 0.051,-0.266 h 0.687 c 0.211,-0.687 0.422,-1.32 0.844,-1.847 0.371,-0.473 0.793,-0.688 1.215,-0.688 0.265,0 0.633,0.215 0.633,0.532 0,0.21 -0.211,0.421 -0.317,0.421 -0.051,0 -0.105,-0.054 -0.105,-0.16 -0.055,-0.422 -0.211,-0.578 -0.422,-0.578 -0.211,0 -0.371,0.156 -0.582,0.422 -0.367,0.527 -0.527,1.105 -0.684,1.793 h 0.95 c 0.05,0.105 0.05,0.211 -0.106,0.266 z m 3.695,1.743 c -0.21,0.582 -0.687,1.582 -1.109,3.113 -0.156,0 -0.262,-0.106 -0.473,-0.106 -0.211,0 -0.371,0.055 -0.531,0.106 1.059,-2.32 2.852,-6.176 3.645,-8.285 0.105,0 0.211,0.05 0.261,0.05 0.106,0 0.211,0 0.266,-0.05 0.898,2.48 3.535,8.234 3.535,8.285 -0.211,-0.051 -0.422,-0.106 -0.687,-0.106 -0.317,0 -0.528,0.055 -0.739,0.106 -0.421,-1.426 -0.894,-2.426 -1.16,-3.113 z m 1.532,-3.536 -1.215,2.903 h 2.535 z m 8.39,6.649 c -0.16,0 -1.531,-0.051 -1.898,-0.051 -0.371,0 -0.637,0 -1.27,0.051 0.106,-1.16 0.161,-2.004 0.161,-4.75 0,-1.742 -0.055,-2.215 -0.106,-3.485 0.688,0.055 1.266,0.055 1.953,0.055 2.11,0 3.27,0 4.379,0.899 1.055,0.789 1.32,2.004 1.32,2.953 0,3.008 -2.214,4.328 -4.539,4.328 z m 1.953,-7.02 c -0.843,-0.632 -1.847,-0.632 -2.796,-0.632 -0.582,0 -0.688,0 -1.055,0.05 v 3.379 c 0,2.164 0,2.43 0.051,3.59 0.422,0.055 0.687,0.106 1.265,0.106 0.532,0 1.637,0 2.43,-0.583 1.109,-0.789 1.32,-2.109 1.32,-3.058 0,-0.949 -0.211,-2.113 -1.215,-2.852 z m 7.758,2.27 c -0.051,0.16 -0.051,0.211 -0.051,0.422 0,0.16 0.051,0.211 0.051,0.371 -0.633,-0.106 -1.32,-0.16 -1.847,-0.16 -0.317,0 -0.684,0 -0.95,0.054 0,0.528 -0.054,1.055 -0.054,1.532 0,0.632 0.054,1.527 0.054,1.843 0.739,0 1.688,0 3.114,-0.156 -0.051,0.156 -0.051,0.211 -0.051,0.422 0,0.211 0,0.266 0.051,0.371 -0.578,-0.105 -1.11,-0.105 -1.637,-0.105 -0.895,0 -1.848,0.05 -2.742,0.105 0.105,-0.898 0.156,-1.637 0.156,-4.223 0,-1.164 -0.051,-2.796 -0.105,-3.961 0.843,0.106 1.636,0.106 2.48,0.106 0.633,0 1.164,0 1.797,-0.106 -0.055,0.161 -0.055,0.266 -0.055,0.422 0,0.211 0,0.266 0.055,0.371 -0.422,-0.105 -0.848,-0.16 -1.902,-0.16 -0.422,0 -0.684,0 -1.106,0.055 v 2.902 c 0.844,0 1.793,0 2.742,-0.105 z m 4.383,4.062 c 0.633,0 1.582,-0.05 2.164,-0.156 0,0.106 -0.055,0.211 -0.055,0.371 0,0.211 0.055,0.317 0.055,0.422 -0.742,0 -1.269,-0.105 -2.535,-0.105 -1.055,0 -1.32,0.05 -2.004,0.105 0.106,-1.531 0.106,-2.797 0.106,-4.328 0,-1.586 -0.106,-3.328 -0.106,-3.856 0.211,0.055 0.316,0.106 0.684,0.106 0.371,0 0.527,-0.051 0.738,-0.106 -0.106,3.012 -0.106,3.801 -0.106,7.547 z m 4.539,-2.425 c -0.215,0.582 -0.687,1.582 -1.109,3.113 -0.16,0 -0.266,-0.106 -0.477,-0.106 -0.211,0 -0.367,0.055 -0.527,0.106 1.055,-2.32 2.851,-6.176 3.64,-8.285 0.106,0 0.211,0.05 0.266,0.05 0.106,0 0.211,0 0.262,-0.05 0.898,2.48 3.539,8.234 3.539,8.285 -0.211,-0.051 -0.422,-0.106 -0.688,-0.106 -0.316,0 -0.527,0.055 -0.738,0.106 -0.422,-1.426 -0.898,-2.426 -1.16,-3.113 z m 1.477,-3.536 -1.215,2.903 h 2.535 z m 5.648,-1.586 c 0.211,0.055 0.317,0.106 0.684,0.106 0.371,0 0.476,-0.051 0.687,-0.106 -0.105,1.426 -0.105,2.852 -0.105,4.223 0,2.113 0.051,3.063 0.105,3.961 -0.211,-0.055 -0.476,-0.105 -0.738,-0.105 -0.266,0 -0.422,0.05 -0.633,0.105 0.106,-1.269 0.156,-1.902 0.156,-4.223 -0.05,-1.691 -0.05,-1.796 -0.156,-3.961 z m 6.754,8.235 c -0.16,0 -1.531,-0.051 -1.898,-0.051 -0.317,0 -0.637,0 -1.27,0.051 0.106,-1.16 0.16,-2.004 0.16,-4.75 0,-1.742 -0.054,-2.215 -0.105,-3.485 0.683,0.055 1.265,0.055 1.953,0.055 2.109,0 3.269,0 4.379,0.899 1.054,0.789 1.32,2.004 1.32,2.953 -0.105,3.008 -2.219,4.328 -4.539,4.328 z m 1.953,-7.02 c -0.844,-0.632 -1.847,-0.632 -2.797,-0.632 -0.582,0 -0.687,0 -1.054,0.05 -0.055,1.11 -0.055,2.325 -0.055,3.379 0,2.164 0,2.43 0.055,3.59 0.421,0.055 0.683,0.106 1.265,0.106 0.528,0 1.637,0 2.426,-0.583 1.109,-0.789 1.32,-2.109 1.32,-3.058 0,-0.949 -0.156,-2.113 -1.16,-2.852 z m 8.18,2.27 c 0,0.16 -0.051,0.211 -0.051,0.422 0,0.16 0.051,0.211 0.051,0.371 -0.633,-0.106 -1.32,-0.16 -1.848,-0.16 -0.316,0 -0.683,0 -0.949,0.054 v 1.532 c 0,0.632 0,1.527 0.055,1.843 0.738,0 1.687,0 3.113,-0.156 -0.055,0.156 -0.055,0.211 -0.055,0.422 0,0.211 0,0.266 0.055,0.371 -0.582,-0.105 -1.109,-0.105 -1.637,-0.105 -0.898,0 -1.847,0.05 -2.746,0.105 0.106,-0.898 0.16,-1.637 0.16,-4.223 0,-1.164 -0.054,-2.796 -0.105,-3.961 0.844,0.106 1.637,0.106 2.48,0.106 0.633,0 1.16,0 1.793,-0.106 0,0.161 -0.051,0.266 -0.051,0.422 0,0.211 0,0.266 0.051,0.371 -0.422,-0.105 -0.843,-0.16 -1.898,-0.16 -0.422,0 -0.688,0 -1.11,0.055 -0.05,0.477 -0.05,0.687 -0.05,1.371 v 1.531 c 0.894,0 1.843,0 2.742,-0.105 z m -60.957,-5.172 h 61.168 v -0.105 h -61.168 z m 45.547,-1.688 c -0.422,-0.476 -1.582,-2.007 -2.008,-2.48 0.582,-0.105 1.531,-0.531 1.531,-1.48 0,-0.473 -0.211,-0.79 -0.473,-1 -0.265,-0.211 -0.687,-0.266 -1.109,-0.266 -0.266,0 -0.582,0.055 -0.844,0.055 -0.265,0 -0.582,0 -0.843,-0.055 h -0.055 v 0.055 c 0.055,0.683 0.055,1.316 0.055,1.949 v 1.32 c 0,0.688 -0.055,1.32 -0.055,1.953 v 0.055 h 0.055 c 0.156,0 0.211,-0.055 0.367,-0.055 0.105,0 0.211,0 0.371,0.055 h 0.051 v -0.055 c -0.051,-0.683 -0.051,-1.32 -0.051,-1.953 V 32.48 h 0.211 c 0.683,0.684 1.637,2.004 1.953,2.481 v 0.051 h 0.051 c 0.16,0 0.265,-0.051 0.422,-0.051 0.16,0 0.265,0 0.421,0.051 h 0.161 z m -2.641,-2.796 c -0.211,0 -0.316,0 -0.473,-0.055 v -0.371 c 0,-0.528 0,-1.055 0.051,-1.582 0.16,0 0.371,-0.051 0.688,-0.051 0.527,0 1.109,0.211 1.109,0.949 0,0.844 -0.793,1.11 -1.375,1.11 z"
       style="fill:#231f20;fill-opacity:1;fill-rule:nonzero;stroke:none"
       transform="scale(1.3333333)" />
    <path
       id="path94"
       d="m 359.332,50.688 c -5.434,-2.321 -8.285,-6.649 -8.285,-12.719 h 16.68 c -0.055,6.07 -2.903,10.398 -8.395,12.719 z"
       style="fill:#ffffff;fill-opacity:1;fill-rule:nonzero;stroke:none"
       transform="scale(1.3333333)" />
    <path
       id="path95"
       d="m 364.348,39.5 h -0.528 v -0.687 h -0.687 v -0.688 l -0.317,0.16 c -0.421,0.156 -0.789,0.262 -1.687,0.262 -1.055,0 -1.531,0.211 -1.742,0.426 -0.211,-0.215 -0.688,-0.426 -1.742,-0.426 -0.899,0 -1.266,-0.156 -1.688,-0.262 l -0.371,-0.16 v 0.688 h -0.684 V 39.5 h -0.687 v 6.809 h 4.59 c 0,0.316 0.211,0.578 0.582,0.578 0.265,0 0.527,-0.211 0.582,-0.528 0,0 0.051,0 0.105,-0.05 h 4.59 V 39.5 Z"
       style="fill:#231f20;fill-opacity:1;fill-rule:nonzero;stroke:none"
       transform="scale(1.3333333)" />
    <path
       id="path96"
       d="m 351.047,30.316 h 16.68 v 7.281 h -16.68 z"
       style="fill:#005a9c;fill-opacity:1;fill-rule:nonzero;stroke:none"
       transform="scale(1.3333333)" />
    <path
       id="path97"
       d="m 359.332,50.688 c -5.434,-2.321 -8.23,-6.649 -8.285,-12.719 h 16.68 c -0.055,6.07 -2.903,10.398 -8.395,12.719 z m 8.395,-20.372 v 7.282 h -16.68 v -7.282 z m 0.789,-0.793 h -18.258 v 8.34 c 0,6.543 3.008,11.137 8.969,13.668 l 0.16,0.055 0.16,-0.055 c 5.961,-2.48 8.969,-7.125 8.969,-13.668 z"
       style="fill:#231f20;fill-opacity:1;fill-rule:nonzero;stroke:none"
       transform="scale(1.3333333)" />
    <path
       id="path98"
       d="m 370.469,46.992 c -2.11,0.477 -3.852,1.27 -5.012,2.219 v 0.051 h -0.055 l 0.739,1.691 c -1.528,0.738 -3.692,1.317 -6.594,1.317 h -0.109 c -2.903,0 -5.118,-0.579 -6.594,-1.317 l 0.683,-1.637 0.055,-0.054 c -1.109,-1 -2.852,-1.793 -5.016,-2.215 v 2.691 c 1.055,0.317 1.692,0.633 2.219,1.11 l -0.211,0.472 -0.531,1.004 v 0.156 c 1.797,1.586 5.387,2.747 9.504,2.747 h 0.105 c 4.114,0 7.703,-1.11 9.5,-2.747 l -0.898,-1.687 c 0.578,-0.527 1.215,-0.738 2.215,-1.109 z"
       style="fill:#ed1c2e;fill-opacity:1;fill-rule:nonzero;stroke:none"
       transform="scale(1.3333333)" />
    <path
       id="path99"
       d="m 351.418,52.219 c 0,0.051 -0.055,0.051 0,0 -0.105,0.156 -0.105,0.211 0,0.261 0.051,0.055 0.105,0 0.156,-0.05 0.055,-0.106 0,-0.16 -0.051,-0.266 -0.054,-0.105 -0.105,-0.211 -0.16,-0.262 0,-0.105 0,-0.16 0.055,-0.211 0.105,-0.211 0.262,-0.211 0.527,-0.16 0.211,0.16 0.262,0.266 0.211,0.528 v 0.054 l -0.211,-0.16 c 0,-0.156 0,-0.211 -0.054,-0.211 -0.051,-0.051 -0.106,0 -0.157,0.055 -0.054,0.105 0,0.156 0.106,0.262 0.051,0.105 0.105,0.211 0.105,0.265 0,0.051 0,0.156 -0.054,0.211 -0.157,0.211 -0.317,0.262 -0.578,0.211 -0.211,-0.16 -0.266,-0.316 -0.161,-0.582 l 0.055,-0.051 z m 1.426,-0.266 -0.321,0.793 c -0.05,0.211 -0.105,0.266 0,0.266 0.11,0.051 0.161,-0.055 0.215,-0.215 l 0.317,-0.738 0.261,0.105 -0.261,0.688 c 0,0.054 -0.055,0.054 -0.055,0.105 0,0.106 -0.051,0.211 -0.156,0.211 -0.106,0.105 -0.211,0.105 -0.426,0 -0.156,0 -0.211,-0.105 -0.262,-0.262 0,-0.16 0.051,-0.265 0.157,-0.476 l 0.265,-0.688 z m 1,0.844 0.105,-0.262 h 0.055 c 0.105,0.051 0.156,0.106 0.105,0.211 -0.105,0.106 -0.105,0.106 -0.265,0.051 0,0.055 0,0.055 0,0 z m -0.528,0.742 0.317,0.106 c 0.16,0.05 0.265,0.05 0.371,0 0.105,-0.055 0.156,-0.161 0.211,-0.211 0.051,-0.161 0,-0.211 -0.106,-0.317 0.157,-0.054 0.211,-0.16 0.211,-0.211 0.051,-0.16 0,-0.215 -0.054,-0.32 -0.051,-0.106 -0.157,-0.211 -0.262,-0.211 l -0.316,-0.105 z m 0.317,-0.16 0.105,-0.316 c 0.16,0.054 0.211,0.105 0.16,0.21 0,0.106 -0.054,0.161 -0.265,0.106 0.055,0 0,0 0,0 z m 2.535,0.316 c -0.055,0.371 -0.211,0.477 -0.527,0.422 -0.211,-0.051 -0.266,-0.105 -0.317,-0.211 -0.054,-0.105 0,-0.261 0,-0.527 0.051,-0.211 0.106,-0.422 0.211,-0.527 0.106,-0.106 0.211,-0.161 0.367,-0.106 0.266,0.051 0.371,0.211 0.317,0.582 l -0.262,-0.055 c 0.051,-0.21 0,-0.21 -0.105,-0.261 -0.161,-0.055 -0.161,0.105 -0.211,0.367 -0.055,0.266 -0.106,0.422 0.05,0.476 0.106,0 0.161,-0.054 0.211,-0.21 V 53.59 c -0.05,0 0.266,0.105 0.266,0.105 z m 0.316,0.528 0.262,0.054 0.055,-0.527 h 0.051 c 0.105,0 0.16,0.105 0.16,0.211 v 0.316 l 0.371,0.051 c -0.106,-0.105 -0.055,-0.211 -0.055,-0.367 0,-0.16 0,-0.211 -0.105,-0.316 0.16,-0.055 0.211,-0.161 0.211,-0.266 0,-0.156 0,-0.211 -0.106,-0.262 -0.105,-0.105 -0.211,-0.105 -0.371,-0.105 l -0.316,-0.106 z m 0.422,-0.684 0.051,-0.316 h 0.055 c 0.156,0 0.211,0.05 0.156,0.211 -0.051,0.05 -0.105,0.105 -0.262,0.105 z m 1.215,-0.422 -0.055,0.844 c 0,0.211 0,0.262 0.106,0.262 0.105,0 0.105,-0.106 0.105,-0.211 l 0.055,-0.844 h 0.316 l -0.054,0.738 v 0.106 c 0,0.16 0,0.211 -0.106,0.316 -0.105,0.106 -0.211,0.16 -0.367,0.16 -0.16,0 -0.266,-0.054 -0.316,-0.211 -0.055,-0.105 -0.055,-0.265 -0.055,-0.476 l 0.055,-0.684 z m 1.742,0.844 c 0,0.367 -0.16,0.527 -0.425,0.527 -0.211,0 -0.262,-0.054 -0.368,-0.211 -0.054,-0.105 -0.105,-0.265 -0.105,-0.527 0,-0.266 0,-0.422 0.105,-0.527 0.106,-0.106 0.211,-0.211 0.368,-0.211 0.265,0 0.425,0.156 0.425,0.472 h -0.265 c 0,-0.211 -0.051,-0.211 -0.16,-0.211 -0.157,0 -0.157,0.161 -0.157,0.422 v 0.055 c 0,0.316 0,0.422 0.157,0.422 0.109,0 0.16,-0.106 0.16,-0.211 v -0.055 z m 0.367,-0.844 h 0.739 v 0.211 h -0.367 v 0.262 l 0.367,-0.051 0.054,0.262 h -0.371 v 0.265 h 0.422 v 0.262 h -0.683 c -0.055,0.106 -0.161,-1.211 -0.161,-1.211 z m 1.954,1.16 -0.211,-1.265 0.265,-0.055 0.157,1.055 0.371,-0.051 0.05,0.211 c 0.055,0 -0.632,0.105 -0.632,0.105 z m 1.109,-1.48 0.156,0.793 c 0.055,0.211 0.055,0.265 0.211,0.211 0.106,0 0.106,-0.106 0.055,-0.262 l -0.211,-0.793 0.262,-0.055 0.16,0.743 v 0.105 c 0.051,0.156 0.051,0.211 0,0.316 -0.055,0.157 -0.16,0.211 -0.317,0.211 -0.211,0.051 -0.265,0 -0.371,-0.105 -0.105,-0.106 -0.105,-0.211 -0.156,-0.477 l -0.16,-0.687 z m 0.844,-0.211 0.422,-0.156 0.265,0.527 0.156,0.266 c -0.05,-0.211 -0.05,-0.266 -0.05,-0.317 l -0.055,-0.531 0.422,-0.156 0.371,1.265 -0.266,0.106 -0.261,-0.949 0.105,1.054 -0.211,0.055 -0.476,-0.953 0.316,1.004 -0.262,0.105 c -0.054,-0.051 -0.476,-1.32 -0.476,-1.32 z m 1.426,-0.473 0.683,-0.211 0.106,0.211 -0.368,0.157 0.106,0.21 0.367,-0.156 0.109,0.211 -0.32,0.156 0.106,0.266 0.371,-0.211 0.105,0.211 -0.687,0.266 c -0.051,0.105 -0.578,-1.11 -0.578,-1.11 z m 1.003,-0.371 0.262,-0.156 0.633,0.578 c -0.156,-0.211 -0.262,-0.367 -0.316,-0.527 l -0.106,-0.211 0.211,-0.156 0.688,1.105 -0.266,0.16 -0.684,-0.582 c 0.157,0.211 0.211,0.317 0.317,0.527 l 0.156,0.211 -0.211,0.161 z m -7.339,-6.492 c -0.422,-0.473 -0.844,-0.633 -1.211,-0.633 l -0.422,0.055 c -0.477,0.051 -1.11,0.105 -1.375,0.105 h -0.633 v -5.648 h -0.316 v 6.016 h 0.949 c 0.265,0 0.898,-0.051 1.32,-0.106 l 0.477,-0.051 c 0.367,0.106 0.789,0.051 1.211,0.262 z m 3.906,-6.066 v 5.644 H 362.5 c -0.262,0 -0.898,-0.051 -1.371,-0.105 l -0.422,-0.051 c -0.422,0 -0.844,0.156 -1.215,0.633 v 0.05 c 0.422,-0.316 0.844,-0.21 1.215,-0.21 l 0.473,0.054 c 0.422,0.051 1.058,0.106 1.32,0.106 h 0.949 v -6.071 c -0.105,-0.05 -0.156,-0.05 -0.316,-0.05 z"
       style="fill:#ffffff;fill-opacity:1;fill-rule:nonzero;stroke:none"
       transform="scale(1.3333333)" />
    <path
       id="path100"
       d="m 358.016,44.355 -0.477,0.051 c -0.422,0.055 -1.055,0.106 -1.32,0.106 h -0.211 v -5.86 c 0.371,0.161 0.844,0.266 1.637,0.266 1.32,0 1.582,0.422 1.582,0.422 l 0.054,0.055 v 5.277 c -0.476,-0.317 -0.898,-0.317 -1.265,-0.317 z m 4.75,0.106 h -0.211 c -0.266,0 -0.899,-0.055 -1.321,-0.106 l -0.476,-0.054 c -0.367,0 -0.789,0.054 -1.211,0.422 v -5.278 l 0.051,-0.05 c 0,0 0.211,-0.422 1.582,-0.422 0.847,0 1.269,-0.16 1.636,-0.266 -0.05,0.422 -0.05,5.438 -0.05,5.754 z"
       style="fill:#ffffff;fill-opacity:1;fill-rule:nonzero;stroke:none"
       transform="scale(1.3333333)" />
    <path
       id="path101"
       d="m 357.699,40.605 c -0.582,0 -1.058,-0.05 -1.375,-0.105 v 0.211 c 0.371,0.105 0.793,0.105 1.375,0.105 h 0.317 c 0.316,0 0.578,0.055 0.738,0.161 v -0.211 c -0.211,-0.055 -0.422,-0.106 -0.738,-0.161 z m 0,0.688 c -0.636,0 -1.109,0 -1.426,-0.051 v 0.211 c 0.368,0.051 1.004,0.051 1.426,0.051 h 0.317 c 0.316,0 0.578,0.055 0.738,0.16 v -0.211 c -0.211,-0.105 -0.422,-0.105 -0.738,-0.16 z m 0.051,0.793 c -0.473,0 -1.109,0.051 -1.426,0 v 0.211 c 0.371,0.051 0.953,0 1.426,0 h 0.266 c 0.211,0 0.527,0.051 0.789,0.156 v -0.211 c -0.262,-0.105 -0.528,-0.156 -0.789,-0.156 z m 0,0.738 h -0.156 c -0.426,0.051 -0.899,0.051 -1.27,0.051 v 0.211 c 0.317,0 0.899,-0.051 1.27,-0.051 h 0.367 c 0.211,0 0.527,0.051 0.793,0.156 V 42.98 c -0.266,-0.156 -0.582,-0.156 -0.793,-0.156 z m 0.266,0.684 -0.422,0.055 c -0.371,0.054 -0.899,0.105 -1.215,0.105 v 0.211 c 0.316,0 0.844,-0.051 1.215,-0.106 l 0.422,-0.05 c 0.211,0 0.527,0 0.789,0.156 v -0.211 c -0.317,-0.105 -0.578,-0.16 -0.789,-0.16 z m -0.371,-3.586 c -0.477,0 -0.793,-0.055 -1.055,-0.106 V 39.34 c -0.106,0 -0.211,-0.051 -0.317,-0.106 v 0.688 c 0.262,0.105 0.684,0.211 1.372,0.211 0.476,0 0.843,0.051 1.109,0.156 v -0.211 c -0.266,-0.156 -0.633,-0.156 -1.109,-0.156 z m 3.429,0.156 c 0.688,0 1.059,-0.105 1.375,-0.211 v -0.156 c -0.265,0.105 -0.687,0.211 -1.375,0.211 -0.261,0 -0.578,0 -0.789,0.051 v -0.528 c -0.055,0 -0.16,0.055 -0.211,0.055 -0.054,0.051 -0.105,0.051 -0.16,0.051 v 0.687 c 0.316,-0.105 0.688,-0.16 1.16,-0.16 z m -0.051,0.582 h -0.316 c -0.266,0 -0.527,0.051 -0.738,0.106 v 0.211 c 0.211,-0.055 0.422,-0.106 0.738,-0.161 h 0.316 c 0.579,0 1.055,-0.05 1.372,-0.105 V 40.5 c -0.368,0.105 -0.793,0.16 -1.372,0.16 z m 0,0.688 h -0.316 c -0.316,0 -0.582,0.05 -0.738,0.156 v 0.211 c 0.211,-0.106 0.422,-0.156 0.738,-0.156 h 0.262 c 0.422,0 1.004,0 1.426,-0.055 v -0.211 c -0.317,0.055 -0.793,0.055 -1.372,0.055 z m -0.054,0.738 h -0.262 c -0.211,0 -0.527,0.051 -0.738,0.156 v 0.211 c 0.211,-0.105 0.527,-0.156 0.738,-0.156 h 0.262 c 0.476,0 1.058,0.051 1.426,0 v -0.211 c -0.368,0.051 -0.899,0.051 -1.426,0 z m 0.16,0.789 h -0.371 c -0.211,0 -0.528,0.055 -0.789,0.16 v 0.211 c 0.261,-0.105 0.578,-0.16 0.789,-0.16 h 0.371 c 0.422,0.055 0.949,0.055 1.266,0.055 V 42.93 c -0.317,0 -0.844,-0.055 -1.266,-0.055 z m 0.051,0.742 -0.422,-0.054 c -0.211,0 -0.528,0 -0.789,0.16 v 0.211 c 0.261,-0.161 0.578,-0.161 0.789,-0.161 l 0.422,0.055 c 0.371,0.051 0.898,0.106 1.215,0.106 v -0.211 c -0.317,0 -0.844,-0.055 -1.215,-0.106 z"
       style="fill:#231f20;fill-opacity:1;fill-rule:nonzero;stroke:none"
       transform="scale(1.3333333)" />
    <path
       id="path102"
       d="m 358.016,45.41 -0.422,0.051 c -0.477,0.055 -1.11,0.105 -1.375,0.105 h -1.317 v -5.699 h -0.32 v 6.071 h 1.637 c 0.265,0 0.898,-0.051 1.32,-0.106 l 0.477,-0.055 c 0.261,0 0.632,-0.105 1,0 v -0.05 c -0.368,-0.211 -0.684,-0.317 -1,-0.317 z m 5.804,-5.543 v 5.754 h -1.32 c -0.262,0 -0.898,-0.055 -1.371,-0.105 l -0.422,-0.055 c -0.316,0 -0.687,0.105 -1.055,0.371 0.317,-0.16 0.684,-0.055 1.055,-0.055 l 0.473,0.055 c 0.422,0.055 1.058,0.106 1.32,0.106 h 1.637 v -6.071 z m -3.113,-4.117 h 0.633 l 0.262,-0.422 0.211,0.422 h 0.636 l -0.316,0.527 0.316,0.532 h -0.636 l -0.211,0.421 -0.262,-0.421 h -0.633 l 0.316,-0.532 z m 2.164,-3.375 0.367,0.473 h 0.688 l -0.211,0.527 0.422,0.477 -0.633,0.211 -0.106,0.632 -0.527,-0.261 -0.582,0.261 -0.105,-0.582 -0.582,-0.211 0.371,-0.472 -0.16,-0.582 h 0.636 c 0,-0.051 0.422,-0.473 0.422,-0.473 z m -3.484,-1.586 0.422,0.477 h 0.687 l -0.211,0.578 0.422,0.476 -0.633,0.211 -0.105,0.633 -0.582,-0.316 -0.582,0.265 -0.106,-0.633 -0.578,-0.16 0.422,-0.476 -0.16,-0.578 h 0.633 z m 0.051,3.961 0.265,0.422 0.527,0.156 -0.316,0.371 v 0.528 l -0.476,-0.161 -0.528,0.161 v -0.528 l -0.316,-0.371 0.527,-0.156 z m -1.422,0.578 -0.477,-0.422 v -0.683 h -0.687 l -0.473,-0.477 -0.527,0.477 h -0.688 v 0.683 l -0.476,0.422 0.476,0.477 v 0.683 h 0.688 l 0.527,0.477 0.473,-0.477 h 0.687 v -0.683 z"
       style="fill:#ffffff;fill-opacity:1;fill-rule:nonzero;stroke:none"
       transform="scale(1.3333333)" />
    <path
       id="path103"
       d="M 364.875,44.355 V 41.82 h 0.16 v -0.738 h -0.16 v -0.898 h -0.367 v 6.07 h -4.594 c -0.051,0 -0.051,0.055 -0.105,0.055 -0.051,0.261 -0.262,0.527 -0.582,0.527 -0.262,0 -0.579,-0.211 -0.579,-0.582 h -4.593 v -6.016 h -0.317 v 0.895 h -0.156 v 0.742 h 0.156 v 2.48 h -0.156 v 0.739 h 0.156 v 1.476 h 4.645 c 0.16,0.371 0.527,0.633 0.949,0.633 0.426,0 0.742,-0.211 0.953,-0.633 h 4.645 v -1.531 h 0.156 v -0.738 c 0,0.054 -0.211,0.054 -0.211,0.054 z"
       style="fill:#ed1c2e;fill-opacity:1;fill-rule:nonzero;stroke:none"
       transform="scale(1.3333333)" />
    <path
       id="path104"
       d="m 351.047,38.02 c 0.055,6.07 2.851,10.347 8.285,12.722 v -3.484 c -0.422,0 -0.738,-0.211 -0.949,-0.633 h -4.645 v -1.531 h -0.156 v -0.739 h 0.156 v -2.48 h -0.156 v -0.742 h 0.156 v -0.895 h 0.317 V 39.5 h 0.687 v -0.687 h 0.688 v -0.688 l 0.316,0.16 c 0.422,0.156 0.789,0.262 1.688,0.262 1.054,0 1.531,0.211 1.742,0.426 v -1.004 h -8.129 z"
       style="fill:#b38808;fill-opacity:1;fill-rule:nonzero;stroke:none"
       transform="scale(1.3333333)" />
  </g>
</svg>
